<?xml version="1.0" encoding="utf-8"?>
<!-- Generator: Adobe Illustrator 18.1.0, SVG Export Plug-In . SVG Version: 6.00 Build 0)  -->
<svg version="1.1" id="Capa_1" xmlns="http://www.w3.org/2000/svg" xmlns:xlink="http://www.w3.org/1999/xlink" x="0px" y="0px"
	 viewBox="0 0 1216.8 821" enable-background="new 0 0 1216.8 821" xml:space="preserve">
<g>
	<g>
		<path fill="#FFFFFF" d="M0,0h0.7c2.5,1.9,5,3.9,7.7,5.6c40.8,27,80.9,55.3,119.1,85.9c6,5.2,12.7,9.6,18.3,15.3
			c-0.5,0.1-1.4,0.3-1.9,0.4c-14-10.8-29-20.3-43.9-29.6c-4.6-3-9.2-5.8-13.9-8.6c-2.6-1.8-5.2-3.6-7.9-5.1
			c-11.9-6.6-23.6-13.6-36.3-18.6C44,49.8,46.9,54,50,58c9.9,12.7,22.1,23.3,34.4,33.6c10.7,8.8,21.9,16.9,33.2,24.9
			c2.4,1.7,5,3.1,7.6,4.5c4.6,3.6,8.7,7.9,13.6,11.1c1.8,1.6,3.5,3.2,5.4,4.8c52.8,42.9,104.2,87.6,152.3,135.7
			c31.1,30.7,60.7,62.8,88.8,96.2c22.9,27.6,45.3,55.9,65.2,85.8c19.4,28.7,36.4,59.1,49.9,91.1c7.9,21,5.7,44.1,12.7,65.3
			c3.1,8.6,0,17.6-0.7,26.3l-0.3,0.7c-7.3,7.1-13.8,14.9-20.7,22.4c-6.4,7.3-13.3,14-19.2,21.7c5-0.7,10-1.7,15.1-2.1
			c-7.2,9.1-16.1,16.7-23.5,25.8c-2.4,2.9-4.3,6.5-4.1,10.3c0.1,3.7,3.5,5.9,5.7,8.4c-2.5,4.2-6.9,6.5-11,8.9
			c-15.1,8.7-31.1,15.9-47.1,22.9c-9.9,4.5-20.5,7.3-29.6,13.4c-7.4,4.7-13.6,11-20.4,16.7c-7.5,6.2-16.5,10.6-25.9,13.1
			c-7.5,2.1-15.4,2.9-22.9,5.1c-12.5,3.6-23.6,10.5-35.8,14.8c-1.8,0.6-3.5,1.3-5.3,1.9H0V0L0,0z"/>
	</g>
	<g>
		<path fill="#9AB4D7" d="M0.7,0h7.6C21.2,2,34,4.9,46,10.1c4.5,2.1,9.7,2.2,13.8,5.3c-0.6,0.5-1.7,1.6-2.3,2.2
			c-11.9-3.8-23.9-8-36.5-9.3c6.8,6.3,14.9,10.9,22.2,16.5c44.2,31.7,87.6,64.5,129.1,99.8c-6.3-0.9-9.6-9-16.4-7.8
			c-4.1-3.1-8.3-6.1-12-9.7c0.5-0.1,1.4-0.3,1.9-0.4c-5.6-5.6-12.3-10-18.3-15.3C89.3,60.9,49.2,32.6,8.4,5.6C5.8,3.9,3.3,1.9,0.7,0
			L0.7,0z"/>
	</g>
	<g>
		<path fill="#5A7FB9" d="M21,8.2c12.6,1.2,24.6,5.4,36.5,9.3l0.7,0.3c1,1.4,1.9,2.8,2.9,4.2C56,21.2,51,19.7,45.8,19.2
			c1.7,2.6,4.2,4.5,6.7,6.3c51.1,38.6,102.1,77.5,150.3,119.7c22.2,19.8,44.3,39.7,66,59.9c5.5,4.5,10.3,9.7,15.4,14.7
			c15.5,13.8,29.7,29,44.5,43.5c7.6,7.8,15.6,15.1,22.6,23.4c4.8,5.5,10.4,10.3,15.1,15.9c40,43.5,77.7,89.4,110.3,138.7
			c3.4,4.9,6,10.4,10.1,14.8c-2.9-7-7-13.5-11-20c-19.5-31.2-41.6-60.7-65.2-88.8c-18.5-22.4-38.8-43.2-58.1-64.9
			c-23.8-26.2-47.5-52.5-71.4-78.6c-6.5-6.1-12-13.4-18.5-19.5c-5.4-5-9.8-10.8-15-16c-9.5-9.5-18.9-19.1-28.6-28.4
			c-1.9-1.9-3.4-4.1-4.9-6.3c3.5,2.5,7.3,5.6,11.9,4.8c7.3,5.9,14.7,11.7,22.1,17.5c4,3.2,8.6,5.3,12.8,8.2c2.6,3.1,5.5,6,8.9,8.1
			c6.7,4.5,13,9.6,19.2,14.7c-1.4-0.3-2.8-0.5-4.2-0.7c4.3,5,9.2,9.5,13.4,14.5c11.1,11.5,22.8,22.5,33.8,34.2
			c5.7,6.9,12.6,12.8,18.4,19.7c52.3,56.9,100.4,117.8,142.1,182.9c7.2,11.1,12.9,23.2,20.5,34c-1,3.6-1.8,7.2-2.6,10.8
			c-18.4-33.8-40.6-65.4-63-96.6c-6.3-9-13.4-17.3-19.4-26.5c9.8,9.9,17.4,21.9,27,32c-2.9-5.3-6.6-10-10.1-14.9
			c-34.4-47.3-72.1-92.2-112.1-134.9c-6.8-6.5-12.5-14.3-19.9-20.1c9,11.6,19.5,22,28.4,33.8c-7.6-6.1-13.2-14.2-20.3-20.8
			c-15.7-16.9-32-33.3-48.6-49.4c-4.1-3.9-8-8-12.4-11.6c2.5,3.4,5.5,6.5,8.5,9.5c39.2,41.6,76.4,85,113.9,128.2
			c23.5,26.9,47.1,53.8,68.5,82.4c18.2,24.4,35.1,49.8,49.3,76.7c3.1,5.8,5.9,11.8,9.2,17.4c-2.2,10.5-3.4,21.1-4.4,31.7
			c-3.6-8-6.3-16.2-9.8-24.2c-2.7-6.8-6.6-13.1-9.1-20.1c7.6,6.6,9.6,17.4,17.2,24.1c-1.7-6.1-5.1-11.6-7.9-17.2
			c-18.8-35.8-42.3-69-67-101c-36.4-46.5-76.5-90-118.5-131.5c-8.8-8.5-17.3-17.4-26.5-25.5c-4.4-3.9-8.2-8.5-13-11.9
			c1.9,2.4,3.9,4.8,5.7,7.3c-5.3-3.7-9.4-8.8-14.4-12.8c-16.5-15.2-33.1-30.2-50.3-44.5c5,6.3,11.9,10.7,17.2,16.7
			c15.5,14.1,30.1,29.2,45,44c25,25,49.3,50.7,73.8,76.2c28,30.1,55.7,60.7,80.2,93.8c9.3,12.2,18.1,24.6,26.8,37.3
			c2.5,3.6,4.8,7.3,6.9,11.1c-2.4-1.6-4.9-3.1-6.6-5.5c-29.5-42.5-60.9-83.9-96.7-121.3c-4.8-5.5-9.5-11.2-14.7-16.3
			c-6.9-6.8-13.7-13.6-20-21c-27.7-27.7-55.2-55.4-83-83c-10.1-8.5-18.7-18.6-28.9-27.1c-6.8-6.9-14.2-13.2-21.3-19.7
			c-5.1-4.6-10.7-8.7-15.1-14c10,5.9,17.3,15.4,27.3,21.3c-2.9-4.9-7.7-8-11.9-11.6c-3.2-2.7-4.4-6.8-7.3-9.7
			c-3.3-3.1-6.8-6.1-10.7-8.5C130.8,89.3,87.4,56.5,43.2,24.8C35.9,19.1,27.8,14.5,21,8.2L21,8.2z"/>
	</g>
	<g>
		<path fill="#99B3D6" d="M58.2,17.8c2.5,1.2,5,2.4,7.7,3.1c10.2,1.8,18.6,8.5,27.3,13.9c-1.4-0.2-2.8-0.4-4.2-0.6
			c6,4.6,12.6,8.5,18.7,13.1c2.5,1.9,5.2,3.6,8.2,4.8c-0.5-1.5-1-2.9-1.6-4.3c2.9,1.6,5.8,3.2,8.6,5c1.9,1.9,3.9,3.8,6.2,5.3
			c11.1,7.4,21.5,15.8,31.8,24.1c3.4,2.8,7.6,5.1,9.5,9.2c-5.9-4-11.3-8.5-16.8-12.9c-2.9-2.4-6.7-3.1-9.8-5.2
			c-8-5.8-15.7-11.9-24-17.1c5.2,7.4,12,13.3,18.5,19.5c8.2,7.9,17.5,14.5,25.7,22.4c-13-6.8-24.7-15.9-36.8-24.1
			c-5-5-10.9-9.1-16.2-13.8c-8.8-7.8-17.4-16-24.8-25.2C81,27.8,71.6,26.7,63.9,24c-1-0.7-1.9-1.3-2.9-2
			C60.1,20.7,59.2,19.2,58.2,17.8L58.2,17.8z"/>
	</g>
	<g>
		<path fill="#4563A9" d="M45.8,19.2c5.2,0.5,10.1,2,15.2,2.9c1,0.7,1.9,1.3,2.9,2c10.3,12.1,22.9,22,35.5,31.6
			c9.1,6.3,17.7,13.6,27.7,18.4c12.1,8.3,23.8,17.3,36.8,24.1c7.4,4.9,14.6,10,22,15c6.3,5.1,13.3,9.4,19.8,14.2
			c2.7,1.9,5.4,3.7,7.9,5.8l0.6,0.5c1.5,2.2,3,4.5,4.9,6.3c9.6,9.4,19,19,28.6,28.4c5.2,5.1,9.7,11,15,16c6.5,6.1,12,13.4,18.5,19.5
			c24,26,47.7,52.3,71.4,78.6c19.3,21.7,39.6,42.5,58.1,64.9c23.7,28.1,45.8,57.6,65.2,88.8c4,6.5,8.1,12.9,11,20
			c-4.1-4.4-6.7-9.9-10.1-14.8c-32.6-49.4-70.3-95.2-110.3-138.7c-4.7-5.6-10.3-10.4-15.1-15.9c-7.1-8.2-15.1-15.6-22.6-23.4
			c-14.8-14.5-29-29.7-44.5-43.5c-5.1-5-9.9-10.1-15.4-14.7c-21.8-20.2-43.8-40.2-66-59.9C154.6,102.9,103.7,64,52.6,25.4
			C50,23.7,47.5,21.8,45.8,19.2L45.8,19.2z"/>
	</g>
	<g>
		<path fill="#5A7FB9" d="M63.9,24c7.7,2.7,17,3.8,22.2,10.9c7.4,9.2,16,17.3,24.8,25.2c5.3,4.7,11.1,8.8,16.2,13.8
			c-10.1-4.8-18.6-12-27.7-18.4C86.8,46,74.2,36.1,63.9,24L63.9,24z"/>
	</g>
	<g>
		<path fill="#587BB7" d="M89,34.2c1.4,0.2,2.8,0.4,4.2,0.6c7.1,4.1,14.8,7.5,21,13c0.6,1.4,1.1,2.9,1.6,4.3
			c-2.9-1.2-5.7-2.8-8.2-4.8C101.6,42.7,95,38.8,89,34.2L89,34.2z"/>
	</g>
	<g>
		<path fill="#9AB4D7" d="M41.9,45.2c12.7,5,24.4,12,36.3,18.6c2.8,1.5,5.4,3.3,7.9,5.1c-6.4-2.3-11.9-6.3-18.2-8.8
			c2.3,5.6,6,10.5,9.7,15.3c13.6,17.4,31.2,30.9,47.6,45.5c-2.6-1.4-5.2-2.8-7.6-4.5c-11.3-7.9-22.5-16.1-33.2-24.9
			C72.2,81.3,59.9,70.7,50,58C46.9,54,44,49.8,41.9,45.2L41.9,45.2z"/>
	</g>
	<g>
		<path fill="#A4BBDB" d="M122.8,52.8c2.1,0.5,4.3,1,6.2,2.3c30.9,19.6,59.5,42.8,86.6,67.4c5.6,5.7,12.1,10.5,17.2,16.7
			c-12.2-9.7-23.8-20.2-36-29.9c-5-3.9-9.5-8.4-15.1-11.4c3.6,5.2,9.3,8.4,13.2,13.3c-4.8-3.1-9.1-7-13.6-10.5
			c-3.8-3-7.7-5.7-11.1-9.2c-2-4.1-6.1-6.4-9.5-9.2C150.5,73.9,140,65.5,129,58.1C126.7,56.6,124.7,54.7,122.8,52.8L122.8,52.8z"/>
	</g>
	<g>
		<path fill="#5A7FB9" d="M67.9,60.2c6.3,2.5,11.8,6.5,18.2,8.8c4.7,2.7,9.3,5.6,13.9,8.6c-0.5,0.4-1.5,1.2-2,1.6
			c4.9,9.6,12.3,17.5,19.4,25.5c6.1,6.5,12.5,12.9,19.3,18.7c10.2,9.9,21.3,18.8,32.5,27.6c-1.1,0.4-2.2,0.9-3.3,1.4
			c-8.8-7-17-15-27.1-20.2c-4.9-3.2-9-7.5-13.6-11.1c-16.3-14.6-33.9-28.2-47.6-45.5C73.9,70.7,70.2,65.8,67.9,60.2L67.9,60.2z"/>
	</g>
	<g>
		<path fill="#9BB5D7" d="M188.8,73.3c2.4,0.8,4.9,1.7,7.2,2.8c27.9,12.1,53.6,28.8,77.6,47.4c2.7,2,5.1,4.3,7.4,6.6
			c-11.9-7.1-23.1-15.3-35.3-21.9c-8.3-4.5-16.6-9.3-25.7-12.2c24.6,23.3,49.7,46.2,74.2,69.7c55.6,53.1,109.7,108,158.1,167.8
			c23,28.4,44.7,57.9,64.6,88.5c3.2,4.8,6,9.8,9.4,14.4l-0.3,0.7c-1.4,3.7-3.1,7.3-4.7,11c-8.6-15.2-18.9-29.4-28.6-43.9
			c-3.9-5.6-8.2-11-12.2-16.6c-2.7-6.2-7.6-11.2-11.6-16.6c-2.4-3.4-6.2-4.9-9.8-6.5c-4.1-5.3-7.9-10.7-11.5-16.3
			c1.5,1,3,1.9,4.5,2.8c-2-3.4-4.9-6.4-5.6-10.4c13.7,16,26.4,33,38.9,49.9c4.1,5.5,7.7,11.4,12.4,16.5c-3.2-6.2-7.4-11.9-11.3-17.7
			c-7.9-11.6-16.5-22.8-24.8-34.2c-3.7-5.1-8-9.7-11-15.2c6.3,5.3,10.1,12.9,16.3,18.3c-1-1.8-2-3.5-3.2-5.2
			c-11.6-14.7-23.4-29.2-35.5-43.4c-68.7-80.4-146.5-152.4-225.3-222.7C198.3,82.4,193.1,78.3,188.8,73.3L188.8,73.3z"/>
	</g>
	<g>
		<path fill="#4563A9" d="M98,79.1c0.5-0.4,1.5-1.2,2-1.6c15,9.3,29.9,18.9,43.9,29.6c3.7,3.6,7.9,6.6,12,9.7
			c5.7,6.1,12.4,11.2,19,16.2c4.4,5.4,10,9.4,15.1,14c7.1,6.5,14.5,12.8,21.3,19.7c10.1,8.5,18.8,18.6,28.9,27.1
			c27.8,27.5,55.4,55.3,83,83c6.3,7.3,13.1,14.2,20,21c5.2,5.2,9.8,10.8,14.7,16.3c35.8,37.5,67.2,78.8,96.7,121.3
			c1.7,2.4,4.2,3.9,6.6,5.5c5.1,6.8,11.1,13,15.6,20.2c2.9,4.7,5.7,9.5,9.2,13.7c2.5,6.9,6.3,13.2,9.1,20.1c3.5,8,6.3,16.2,9.8,24.2
			c0.4,6.9,0.1,13.9,0.3,20.8c-1.3-1.8-2.6-3.6-3.5-5.6c-14.8-35.7-35.6-68.6-57.9-100c-20.6-28.8-43-56.2-66-83
			c-6.9-7.5-13.2-15.5-20.3-22.7c-5.3-6.4-11.4-11.9-16.7-18.3c-3.5-4.1-7.7-7.7-11.1-11.8c-5-6-10.9-11.2-16.2-16.8
			c-9.6-9.5-18.6-19.4-28.8-28.2c-6.5-5.8-12.2-12.5-19-18c-6-5.7-12-11.2-17.4-17.5c4.3,1.4,8.7,2.8,12.4,5.5
			c5.4,4.2,10,9.4,14.4,14.6c3.2,3.8,7.6,6.2,12.1,8c-4.5-7.7-11.8-13-18.3-18.8c-9.3-7.8-18.7-15.3-28.2-22.9
			c-6.6-5.6-14.3-9.7-21.2-14.8c-5.8-4.6-11.5-9.3-17.3-13.9c-2.9-2.5-5.9-4.9-9.4-6.6c-5.6-5.1-11.8-9.4-17.8-13.9
			c-1.9-1.5-3.7-3.1-5.6-4.5c-11.2-8.8-22.3-17.6-32.5-27.6c-6.9-5.8-13.2-12.2-19.3-18.7C110.3,96.6,102.9,88.7,98,79.1L98,79.1z"
			/>
	</g>
	<g>
		<path fill="#5A7FB9" d="M220,96.1c9.1,2.9,17.3,7.7,25.7,12.2c12.2,6.6,23.4,14.8,35.3,21.9c4.9,3.8,9.9,7.4,14.3,11.7
			c-7.8-3.1-14.3-8.5-21.6-12.4c-5.9-2.9-11.2-7.2-17.8-8.4c2.5,4.7,6.8,8,10.6,11.5c7.7,6.6,14.5,14.2,21.9,21.1
			c10.4,9.3,20,19.4,29.9,29.1c18.8,18.9,37.7,37.6,56.4,56.6c6.9,8.4,15.2,15.5,22.3,23.7c44.4,48.2,86.5,98.8,122.2,153.8
			c3.1,4.9,6.1,10,9.7,14.6c-0.9,1.7-1.7,3.3-2.5,5c-3.4-4.6-6.2-9.6-9.4-14.4c-19.9-30.6-41.6-60.1-64.6-88.5
			C404,273.8,349.9,218.9,294.3,165.7C269.8,142.3,244.7,119.4,220,96.1L220,96.1z"/>
	</g>
	<g>
		<path fill="#B2C5E0" d="M178.1,100.9c5.6,3.6,10.6,8,15.8,12.3c4.7,4,9.5,7.8,13.7,12.3c-0.5,0.4-1.4,1.3-1.9,1.7
			c-6.6-4.8-13.5-9.1-19.8-14.2c2.3,1.1,4.7,2.1,7.1,3.1C188.6,110.5,182.6,106.4,178.1,100.9L178.1,100.9z"/>
	</g>
	<g>
		<path fill="#688AC0" d="M155.9,116.8c6.8-1.2,10.1,6.9,16.4,7.8c3.9,2.4,7.4,5.3,10.7,8.5c2.9,2.8,4.1,7,7.3,9.7
			c4.2,3.6,9,6.8,11.9,11.6c-9.9-6-17.2-15.5-27.3-21.3C168.3,128,161.6,122.9,155.9,116.8L155.9,116.8z"/>
	</g>
	<g>
		<path fill="#4563A8" d="M255.9,121c6.6,1.3,11.9,5.5,17.8,8.4c7.4,3.9,13.9,9.3,21.6,12.4c7.1,5.2,13.6,11.1,20.5,16.5
			c14.6,11.6,28.6,23.9,41.8,37.1c6.7,5.6,12.2,12.4,18.8,18.2c11.7,10.9,24.3,20.9,35.6,32.3c2.9,3.5,6,6.7,9.3,9.8
			c24,23.8,47,48.5,68.7,74.3c13.8,15.7,26.5,32.2,39.2,48.8c5.9,7.3,10.9,15.3,16.8,22.7c-3.2,4.5-5.9,9.4-8.8,14.1
			c-3-3.3-5.5-7-8-10.7C518.4,390,507.6,375.2,496,361c-1.2-1.5-2.6-2.8-4-4.1c0.9,2.4,1.9,4.8,2.8,7.1
			c-6.6-7.1-12.2-15.1-18.8-22.1c-2.7-2.8-5.9-4.8-9.2-6.8c3.8,6.6,8.8,12.5,13.2,18.8c13,18.4,26.4,36.5,38.8,55.2
			c4.1,6.3,8.7,12.2,11.8,19c-0.6,1-1.1,2.1-1.6,3.1c-3.6-4.6-6.5-9.7-9.7-14.6c-35.8-55-77.8-105.6-122.2-153.8
			c-7.1-8.2-15.4-15.3-22.3-23.7c-18.7-19-37.6-37.7-56.4-56.6c-9.9-9.8-19.5-19.9-29.9-29.1c-7.5-6.9-14.2-14.5-21.9-21.1
			C262.6,129,258.3,125.7,255.9,121L255.9,121z"/>
	</g>
	<g>
		<path fill="#9AB3D6" d="M138.8,132.1c10.1,5.1,18.3,13.1,27.1,20.2c7.6,6.4,15,12.9,22.6,19.2c8.5,7,16.5,14.7,25.1,21.5
			c62.6,55.1,122.2,113.7,175.8,177.6c21.8,26.1,42.8,52.9,61.9,81c23.6,35.3,44.6,72.9,57.4,113.5c1.4,5.9,3,11.7,4.3,17.6
			c0.2,8.1,1.7,16.1,1.6,24.2c-0.1,8.4,0,16.8,0.4,25.2c-0.7,1.9-1.9,3.4-2.9,5.1c0.7-8.7,3.9-17.7,0.7-26.3
			c-7.1-21.2-4.8-44.3-12.7-65.3c-13.5-32-30.5-62.4-49.9-91.1c-19.9-30-42.2-58.2-65.2-85.8c-28.1-33.4-57.7-65.5-88.8-96.2
			c-48.1-48.2-99.5-92.9-152.3-135.7C142.3,135.3,140.6,133.7,138.8,132.1L138.8,132.1z"/>
	</g>
	<g>
		<path fill="#B7C9E3" d="M213.6,133c2-0.2,4-0.8,6-0.2c2.6,1.3,4.4,3.6,6.6,5.5c-4.6,0.9-8.4-2.2-11.9-4.8L213.6,133L213.6,133z"/>
	</g>
	<g>
		<path fill="#6688BF" d="M165.9,152.2c1.1-0.5,2.2-0.9,3.3-1.4c1.9,1.4,3.7,3,5.6,4.5c0.5,3.5,3.8,5.5,6.1,7.7
			c3.4,2.8,6.9,6.4,11.7,6.2c3.4,1.7,6.5,4.1,9.4,6.6c-0.7,0.1-2.1,0.2-2.8,0.2c5.3,5.7,10.7,11.4,16.9,16.1
			c-0.6,0.2-1.8,0.6-2.5,0.8c-8.6-6.9-16.6-14.5-25.1-21.5C180.9,165.1,173.5,158.6,165.9,152.2L165.9,152.2z"/>
	</g>
	<g>
		<path fill="#87A3CE" d="M180.9,163.1c-2.4-2.2-5.6-4.2-6.1-7.7c6,4.6,12.2,8.8,17.8,13.9C187.8,169.5,184.3,165.9,180.9,163.1
			L180.9,163.1z"/>
	</g>
	<g>
		<path fill="#9AB4D7" d="M211.2,161.9c17.2,14.3,33.9,29.3,50.3,44.5c5,4,9.1,9.1,14.4,12.8c-1.8-2.5-3.8-4.9-5.7-7.3
			c4.8,3.4,8.6,8,13,11.9c9.3,8,17.7,16.9,26.5,25.5c41.9,41.5,82.1,84.9,118.5,131.5c24.7,32,48.2,65.1,67,101
			c2.9,5.6,6.2,11.1,7.9,17.2c-7.6-6.7-9.6-17.5-17.2-24.1c-3.5-4.3-6.4-9-9.2-13.7c-4.5-7.3-10.5-13.4-15.6-20.2
			c-2.1-3.8-4.4-7.6-6.9-11.1c-8.6-12.6-17.5-25.1-26.8-37.3c-24.5-33.1-52.2-63.7-80.2-93.8c-24.5-25.5-48.8-51.2-73.8-76.2
			c-15-14.7-29.5-29.9-45-44C223.1,172.6,216.2,168.2,211.2,161.9L211.2,161.9z"/>
	</g>
	<g>
		<path fill="#F4D4A4" d="M904.9,177.9c17.2-5.8,34.4-11.9,52.2-15.7c-4.4,4.1-9.6,7.1-14.5,10.3c-12.5,8.1-25.8,15-39,22
			c-5.8,3.1-12,5.4-17.7,8.9c1.7,0.3,3.4,0.6,5.1,1c-10.4,5-20.9,9.6-31.3,14.4c-3.4,1.4-5,5.1-8.3,6.6
			c-19.8,9.7-39.3,19.9-58.6,30.5c-5.3,2.8-10.2,6.2-15.8,8.4c0.7-0.7,1.4-1.5,2.2-2.2c2.8-1.8,5.6-3.5,8-5.7
			c-1.1,0.1-2.2,0.2-3.3,0.2c-0.1-0.4-0.4-1.2-0.6-1.6c-2.4,1.1-4.9,2.3-7.2,3.6c-11.3,6.3-23.1,11.8-34.4,18.1
			c-16,8.9-31.7,18.6-46.1,29.9c-16,11.8-31.3,24.6-46,37.9c-25,23.1-48.5,48.3-66.9,77.1c-3.2,5.3-7,10.4-9,16.3l-0.5-0.6
			c-0.9-1.3-1.6-2.6-2.4-3.9c8.5-16.1,19.5-30.7,30.9-44.9c10.3-12.3,21.1-24.2,32.6-35.4c16-15.4,33-29.8,50.5-43.5
			c11-8.1,21.6-16.8,33.4-23.6c15.1-9.6,31-17.9,46.9-26c8.7-4,17.3-8.3,25.9-12.6c0.3,0.2,0.9,0.5,1.2,0.6
			c-0.1,1.1-0.3,2.1-0.5,3.2c4.2-0.2,8.1-1.7,11.4-4.3c11.9-6.6,24.1-12.5,36.1-18.8c3.3-1.5,6.8-2.3,9.8-4.4
			c1.2-1.4,1.7-3.4,3.6-4.3c6.1-3.5,12.1-7.2,17.6-11.6c2-1,3.9-1.9,5.9-2.8c9.5-1.8,17.2-8,25.4-12.7c7.7-5.2,15.8-9.8,22.6-16.2
			c-8.6,1.8-16.7,5.1-24.9,7.9c-72.9,25.8-140.8,63.8-204.2,107.8c-41,28.9-79,62.4-109.9,102.1c-7.2,9.4-13.7,19.3-20,29.3
			c-0.5-0.8-1.1-1.6-1.6-2.3c9.1-13.9,18.5-27.7,29.2-40.4c34.7-41.9,77.5-76.3,122.8-106.2C775,235.9,837.9,201.9,904.9,177.9
			L904.9,177.9z"/>
	</g>
	<g>
		<path fill="#9AB4D7" d="M261,164c5.2,2.6,10.3,5.6,15,9.1c10.2,7.3,20.5,14.8,29.1,24c-5.7-2.7-10.8-6.6-15.9-10.2
			c-6.2-5.2-12.5-10.2-19.2-14.7C266.5,170,263.5,167.1,261,164L261,164z"/>
	</g>
	<g>
		<path fill="#98B2D6" d="M259.9,173.2c4.4,3.5,8.3,7.7,12.4,11.6c16.6,16,32.9,32.5,48.6,49.4c7.1,6.6,12.7,14.7,20.3,20.8
			c-8.9-11.7-19.3-22.2-28.4-33.8c7.4,5.9,13.1,13.6,19.9,20.1c40,42.7,77.7,87.6,112.1,134.9c3.5,4.9,7.2,9.6,10.1,14.9
			c-9.6-10.1-17.1-22-27-32c6,9.2,13.1,17.5,19.4,26.5c22.4,31.2,44.6,62.8,63,96.6c-0.4,1.7-0.8,3.5-1.2,5.2
			c-3.3-5.7-6.1-11.6-9.2-17.4c-14.2-26.9-31.1-52.3-49.3-76.7c-21.4-28.6-45.1-55.5-68.5-82.4c-37.5-43.1-74.6-86.6-113.9-128.2
			C265.3,179.7,262.4,176.6,259.9,173.2L259.9,173.2z"/>
	</g>
	<g>
		<path fill="#97B1D6" d="M199.2,176.1c0.7-0.1,2.1-0.2,2.8-0.2c5.8,4.6,11.5,9.3,17.3,13.9c0.5,1,1,2.1,1.5,3.2
			c-1.6-0.2-3.1-0.5-4.7-0.7C209.9,187.5,204.5,181.8,199.2,176.1L199.2,176.1z"/>
	</g>
	<g>
		<path fill="#F5BB64" d="M899.1,184.1c8.2-2.8,16.3-6.1,24.9-7.9c-6.8,6.4-15,11-22.6,16.2c-8.2,4.8-15.9,10.9-25.4,12.7
			c4.6-3.8,10.1-6.6,13.4-11.7c-11.8,3.2-23,8.2-34.2,12.8c-53.3,22.7-104.2,51.1-151.3,84.7c-23,15.7-44.8,32.9-65.5,51.5
			c-6.2,6.5-13.4,11.9-19.5,18.5c-13.9,15.2-27.7,30.6-39.4,47.6c-4.2,5.4-7.3,11.6-11.4,17.1c-1.3-0.1-2.6-0.2-3.9-0.3
			c0.3-0.4,0.8-1.3,1-1.8c6.3-10,12.8-19.9,20-29.3c30.8-39.7,68.9-73.2,109.9-102.1C758.3,248,826.3,209.9,899.1,184.1L899.1,184.1
			z"/>
	</g>
	<g>
		<path fill="#F4D4A4" d="M811.4,195.4c13.9-5.9,28.3-11.6,43.6-12.4c-5.7,4.5-12.1,7.9-18.2,11.7c-7.9,4.5-15.6,9.3-23.8,13.2
			c1.7-1.5,3.3-3.2,5-4.8c-17.3,2.3-33.3,10.1-48.5,18.3c-30.4,17-57.9,38.5-86.1,58.9c-8.7,6.2-17.1,12.8-25.6,19.2
			c0.9-1.9,1.8-3.7,2.9-5.5c-2.9,0.4-5.8,0.9-8.6,1.6c11.1-8.1,21.3-17.4,33-24.7c-3.1,2.3-4.6,5.8-5.7,9.3
			c8.1-5.4,16.1-11,23.7-17.1c4.1-3.3,8.4-6.3,12.7-9.4C746.2,232,777.1,210.6,811.4,195.4L811.4,195.4z"/>
	</g>
	<g>
		<path fill="#99B3D6" d="M162.7,183.8c4.2,1.7,7.4,4.9,10.5,8c3.4,3.7,6.6,7.6,8.9,12.2c-3.4-3.4-6.9-6.7-11.1-8.9
			c0.7,4,1.8,8,3.2,11.8c6.4,18.8,13.8,37.3,19.7,56.3c12.2,40.5,24.8,81.1,31,123c1.5,11.3,3.3,22.6,2.9,34
			c-2.4-4.1-4.2-8.5-7-12.4c-1.1-3.5-2-7.1-3-10.6c-1.1-10.4-2.1-20.8-3.9-31c-2.8-13.2-5.8-26.5-9.5-39.5
			c-5.2-19.5-9.5-39.4-16.6-58.3c-2.6-7.7-6.5-14.9-9.7-22.4c6.8,6.1,9.6,15.2,13.9,23c-1.6-8.7-5.1-16.8-7.7-25.1
			c-6.5-18.1-13.8-35.8-20-54C163.5,187.9,163.1,185.8,162.7,183.8L162.7,183.8z"/>
	</g>
	<g>
		<path fill="#4664A9" d="M284.9,186.1c1.4,0.2,2.8,0.4,4.2,0.7c5.2,3.6,10.2,7.5,15.9,10.2c4.6,3.4,8.4,7.7,13.1,10.9
			c4.2,2.9,8,6.4,11.7,9.9c-0.5,0.1-1.4,0.2-1.9,0.2c3.4,4.8,7.6,9,11.5,13.4c15.4,17,29.6,35.1,44.1,52.9
			c22.7,28.6,47,55.9,68.8,85.2c23,30.2,44.6,61.5,63,94.7c-0.9,2.3-1.6,4.7-2.3,7.2c-7.6-10.8-13.3-22.9-20.5-34
			c-41.7-65.1-89.8-126-142.1-182.9c-5.8-6.9-12.6-12.8-18.4-19.7c-11-11.7-22.7-22.7-33.8-34.2
			C294.1,195.6,289.2,191.1,284.9,186.1L284.9,186.1z"/>
	</g>
	<g>
		<path fill="#5A7FB9" d="M219.2,189.8c7,5.1,14.7,9.1,21.2,14.8c9.4,7.6,18.9,15.1,28.2,22.9c6.5,5.8,13.8,11.1,18.3,18.8
			c-4.5-1.8-8.9-4.2-12.1-8c-4.4-5.2-9-10.4-14.4-14.6c-3.6-2.8-8.1-4.1-12.4-5.5c5.4,6.2,11.5,11.8,17.4,17.5
			c6.8,5.5,12.5,12.2,19,18c10.2,8.8,19.3,18.7,28.8,28.2c5.4,5.6,11.2,10.8,16.2,16.8c3.5,4.2,7.6,7.7,11.1,11.8
			c5.3,6.3,11.5,11.9,16.7,18.3c7.1,7.2,13.4,15.2,20.3,22.7c23,26.8,45.4,54.3,66,83c22.3,31.4,43.1,64.3,57.9,100
			c0.9,2,2.2,3.8,3.5,5.6c1.4,8.4,2.2,16.8,3.7,25.1c-12.8-40.7-33.8-78.2-57.4-113.5c-19.1-28.1-40.1-54.9-61.9-81
			C335.9,306.6,276.2,248,213.7,192.9c0.6-0.2,1.8-0.6,2.5-0.8c1.5,0.2,3.1,0.5,4.7,0.7C220.3,191.8,219.8,190.8,219.2,189.8
			L219.2,189.8z"/>
	</g>
	<g>
		<path fill="#F4B04F" d="M855.1,206.2c11.2-4.6,22.4-9.6,34.2-12.8c-3.3,5.1-8.8,8-13.4,11.7c-2,0.9-4,1.9-5.9,2.8
			c-8.1,1.8-15.7,5.4-23.1,9c-5.1,2.8-10.7,5.1-15.1,9.1c4.4-1,8.7-2.7,13.1-4c-1.9,2.1-3.8,4.2-5.8,6.1
			c-12,6.3-24.2,12.2-36.1,18.8c-1.5,0-3-0.1-4.5-0.1c0.4-1.1,0.8-2.2,1.2-3.2c-3.1,1-6,2.2-8.9,3.7c-8.6,4.3-17.2,8.6-25.9,12.6
			c-15.9,8.2-31.8,16.4-46.9,26c-11.8,6.9-22.4,15.5-33.4,23.6c-17.5,13.7-34.5,28.1-50.5,43.5c-11.5,11.2-22.2,23.2-32.6,35.4
			c-11.4,14.2-22.4,28.8-30.9,44.9c-0.5,0.8-0.9,1.7-1.3,2.6c-0.2-1.9-0.5-3.7-1-5.5c-1.4-1.7-3.6-2.5-5.4-3.5l0.3-0.5
			c0.2-0.3,0.6-1,0.7-1.3c1.3,0.1,2.6,0.2,3.9,0.3c4.1-5.5,7.2-11.6,11.4-17.1c11.7-17,25.5-32.4,39.4-47.6
			c6.1-6.6,13.3-12,19.5-18.5c20.7-18.5,42.6-35.8,65.5-51.5C751,257.2,801.9,228.9,855.1,206.2L855.1,206.2z"/>
	</g>
	<g>
		<path fill="#5A7EB9" d="M170.9,195c4.2,2.3,7.8,5.5,11.1,8.9c1.3,1.4,2.3,3,3.2,4.7c-1.4-0.6-2.9-1.1-4.3-1.6
			c0.3,2.3,0.7,4.5,1.3,6.8c6.6,21.2,14.4,42,20.8,63.2c8,29.1,16.4,58.1,22.3,87.8c1.2,5.1,1.9,10.4,3.5,15.4
			c-0.7-12.9-2.4-25.8-4.6-38.5c-9-38.5-15.8-77.8-30.2-114.7c-1.9-4.3-3.8-8.5-5.1-13c0.8,0.6,1.5,1.4,2,2.3
			c12.7,24.1,20.1,50.5,26,76.9c4.8,20.3,8.3,40.8,12.9,61.1c2.5,18,4.4,36.1,6.8,54.1c2,13.1,1.4,26.4,3.4,39.5
			c0.3,1.9,1,3.8,1.6,5.6c0.7-2.1,1.3-4.2,2-6.3c1.4,5.6,0.6,11.6,3,17c4.6-18.3,0.5-37.1-2.3-55.3c-3.1-17.4-4.2-35.1-6.4-52.7
			c-3-23.6-6.9-47.2-12.7-70.3c-1.3-5.6-3.5-11.1-3.8-17c1.1,1.8,2.2,3.5,3.3,5.3c1.6,2.7,3,5.4,4.4,8.2c0.5-0.2,1-0.4,1.6-0.6
			c1.1,2.5,2.2,4.9,3.4,7.4c-1,0.2-1.9,0.4-2.9,0.6c5.3,22.5,9.3,45.3,12,68.3c2.3,16.9,3.1,34,5.1,50.9c2.1,16,5.4,31.9,6,48
			c-0.4,7.5-0.3,15.6-4,22.4c-1.7-4-2.7-8.2-4.5-12.1c-5.9-12.8-8.9-26.6-11.5-40.4c-0.4,6.4-0.2,12.8-0.1,19.1
			c0.1,8.4,2,16.9-0.1,25.2c-5-1.8-3.3-7.6-4.7-11.5c-1.1-1.5-2.6-2.7-3.7-4.2c-0.9-3-0.5-6.3-2.1-9c-1.3-2.3-2.8-4.7-2.6-7.4
			c0-10.4,0.1-20.9-0.1-31.3c2.8,3.8,4.6,8.3,7,12.4c0.4-11.4-1.4-22.7-2.9-34c-6.2-41.9-18.8-82.5-31-123
			c-6-19-13.3-37.5-19.7-56.3C172.8,203,171.6,199.1,170.9,195L170.9,195z"/>
	</g>
	<g>
		<path fill="#F5BA63" d="M769.4,221.4c15.3-8.1,31.2-15.9,48.5-18.3c-1.6,1.6-3.2,3.3-5,4.8c-13,7.9-26.5,15-38.8,24.1
			c-4.2,1.6-8.3,3.6-12.1,6c-18,10.2-36.1,20.2-53.5,31.4c-13.2,8.3-25.5,17.7-37.8,27.2c-29.3,23.1-56.9,48.5-80.7,77.3
			c-11,13.4-21.4,27.4-30.2,42.4l-0.4,0.7c-1.1-2.7-1.6-5.7-3.6-7.9c-2.5-2.3-5.4-4.1-8-6.2c0.1-0.7,0.2-2.1,0.3-2.8
			c3.6-1.7,5.3-5.5,7.5-8.5c16.2-23,35.1-44.1,55.5-63.5c9-9.4,19.2-17.6,29-26.2c0.4,0,1.3,0.1,1.7,0.2c-3.3,4.8-7.1,9.4-11.5,13.2
			c-5.4,4.2-11.4,7.9-16.3,12.8c-2.4,2.4-3.3,5.7-4.1,8.9c11.5-7.9,20.5-18.9,31.8-27.1c-1.2,1.8-2.4,3.6-3.6,5.4
			c6.8-4.9,13.4-10.1,19.6-15.8c8.6-6.4,17-12.9,25.6-19.2C711.5,260,739,238.4,769.4,221.4L769.4,221.4z"/>
	</g>
	<g>
		<path fill="#99B3D6" d="M192.2,204.9c2.4,3.4,3.9,7.4,5.9,11.1c0.9,1.7,3.5,1.7,4.1,3.6c2.3,4.5,3.9,9.3,6.5,13.5
			c0.3-1.5,0.5-2.9,0.8-4.4c3,4,4.5,8.8,6.4,13.3c3.4,8.7,7,17.4,9.1,26.5c-4.3-4.4-5.5-10.6-8.7-15.7c-3.8,0.4-4.5-4.6-7.4-6.2
			c0.8,5.4,3.2,10.4,4.6,15.7c5.5,17.7,9.5,35.8,12.9,54.1c1.5,6,1.9,12.2,4.5,17.9c0-6.6-1.9-12.9-2.8-19.3
			c-1.4-8.9-3.7-17.6-5.6-26.4c-2-9.9-5.4-19.5-7.6-29.5c2.3,3.1,4.6,6.3,6.5,9.7c0.3,5.9,2.4,11.3,3.8,17
			c5.8,23.1,9.6,46.6,12.7,70.3c2.2,17.5,3.3,35.2,6.4,52.7c2.9,18.2,6.9,37.1,2.3,55.3c-2.3-5.4-1.6-11.4-3-17
			c-0.6,2.1-1.3,4.2-2,6.3c-0.6-1.8-1.3-3.7-1.6-5.6c-2-13.1-1.4-26.4-3.4-39.5c-2.4-18-4.3-36.1-6.8-54.1
			c-4.6-20.3-8.1-40.8-12.9-61.1c-5.8-26.5-13.2-52.9-26-76.9c1,0.6,2.1,1.1,3.1,1.7C193.1,213.6,192,209.3,192.2,204.9L192.2,204.9
			z"/>
	</g>
	<g>
		<path fill="#4664A9" d="M181,207.1c1.5,0.5,2.9,1,4.3,1.6c1.5,1.5,2.8,3.2,3.6,5.2c1.3,4.5,3.2,8.7,5.1,13
			c14.5,37,21.2,76.2,30.2,114.7c2.2,12.7,4,25.6,4.6,38.5c-1.6-5-2.3-10.3-3.5-15.4c-6-29.6-14.3-58.6-22.3-87.8
			c-6.5-21.2-14.3-42-20.8-63.2C181.6,211.6,181.3,209.3,181,207.1L181,207.1z"/>
	</g>
	<g>
		<path fill="#F5B962" d="M847,217c7.4-3.6,15-7.2,23.1-9c-5.5,4.4-11.5,8.1-17.6,11.6c-1.8,0.8-2.4,2.8-3.6,4.3
			c-3,2-6.5,2.9-9.8,4.4c2.1-1.9,4-4,5.8-6.1c-4.4,1.3-8.6,2.9-13.1,4C836.3,222.1,841.8,219.8,847,217L847,217z"/>
	</g>
	<g>
		<path fill="#5A7FB9" d="M328.1,218c0.5,0,1.4-0.1,1.9-0.2c4.2,3.2,8.3,6.5,12.2,10c9.1,10.5,18.8,20.6,28,31
			c11.3,11.3,22.1,23.2,32.8,35.1c5.3,5.8,10.2,11.8,15.8,17.3c9.9,12.2,19.7,24.3,29,37c3.6,5.6,7.4,11,11.5,16.3
			c-4.3-2.2-6.3-6.9-9.3-10.4c-15.7-20.2-31.9-40-48.6-59.5c-4.1-4.6-7.8-9.7-12.5-13.7c3,5.5,7.3,10.2,11,15.3
			c22.6,30,46.3,59.2,68.4,89.6c17.5,23.9,33.6,48.9,48.6,74.4l-0.2,0.7c-0.4,1.1-0.9,2.3-1.3,3.4c-18.4-33.2-40-64.5-63-94.7
			c-21.8-29.3-46-56.7-68.8-85.2c-14.5-17.8-28.7-35.9-44.1-52.9C335.7,227,331.5,222.9,328.1,218L328.1,218z"/>
	</g>
	<g>
		<path fill="#9AB4D7" d="M158.1,219.9c4.6,2.6,7.1,7.6,9.9,11.9c-0.6-0.1-1.7-0.5-2.3-0.6c-2.1,7.8,0.6,15.8,2.9,23.2
			c1.9,5.9,3.9,11.8,6.5,17.4c-0.2,0.6-0.7,2-0.9,2.6c-5.5-12.1-10.6-24.3-14.5-37C158.2,231.7,156.5,225.7,158.1,219.9L158.1,219.9
			z"/>
	</g>
	<g>
		<path fill="#7091C4" d="M200.2,222c4.2,6.7,6.7,14.3,8.5,22c-1.9-1.7-3.7-3.6-4.8-5.9c-2.2-4.2-4.9-8.2-6.1-12.9
			c1,0.9,2,1.7,3,2.6C200.6,225.9,200.4,224,200.2,222L200.2,222z"/>
	</g>
	<g>
		<path fill="#F5D6A9" d="M720.3,241.3c9.8-5.8,19.3-12.4,29.6-17.3c-8,6-17,10.6-24.5,17.4c-5.2,4.7-10.9,8.7-16.9,12.4
			c-2.2-0.2-4.3,0.2-6.1,1.5c-14.8,9.7-29,20.4-43.2,30.9c-6.4,5.2-13.3,9.8-19.1,15.7c-9.8,8.6-19.9,16.8-29,26.2
			c-20.4,19.3-39.3,40.4-55.5,63.5c-2.2,3.1-3.9,6.8-7.5,8.5l-0.9,0.5c0.2-0.6,0.7-1.7,0.9-2.3c22.8-34.8,51.9-65,83.3-92
			C659.2,282.2,689.2,260.9,720.3,241.3L720.3,241.3z"/>
	</g>
	<g>
		<path fill="#99B3D6" d="M342.2,227.8c12.2,8.2,22.7,18.7,32.9,29.1c14.8,15.6,28.5,32.2,42.1,48.9c0.6,1.8,1.1,3.6,1.6,5.4
			c-5.6-5.4-10.6-11.5-15.8-17.3c-10.7-11.9-21.5-23.8-32.8-35.1C361,248.4,351.3,238.3,342.2,227.8L342.2,227.8z"/>
	</g>
	<g>
		<path fill="#5B7FBA" d="M165.8,231.1c0.6,0.2,1.7,0.5,2.3,0.6c3,5,6.6,9.5,9.9,14.2c3.2,7.5,7.1,14.6,9.7,22.4
			c7.1,18.9,11.4,38.8,16.6,58.3c3.8,13,6.7,26.2,9.5,39.5c1.8,10.3,2.8,20.7,3.9,31c-1.6-2.6-3.2-5.2-3.7-8.3
			c-2.2-11.4-2.8-23.1-5.5-34.5c-2.7-10.7-4.6-21.6-7.9-32.2c-5.8-18.4-9.8-37.4-16.4-55.6c-2.9-7.7-5-15.9-9.8-22.8
			c-1.8,4.3-0.5,8.9,0.4,13.3c3.5,15.1,9.8,29.2,15.4,43.6c2.7,6.9,6.4,13.6,6.5,21.2c-2.4-2.4-4.2-5.2-5.8-8.2
			c-2-4-5.1-7.4-8.2-10.5c0.9,8.7,5.8,16.3,7.2,24.9c2.2,11.9,6.4,23.3,8.9,35.1c4.9,19.5,8.9,39.2,11.9,59.1
			c2.9,15.2,2.8,30.7,4,46c-1-1.1-2-2.1-2.9-3.2c-1.2-1.8-1.7-3.9-2-5.9c-0.6-8.8-1.5-17.5-2-26.2c-0.6-10.9-2.9-21.5-4.6-32.2
			c-7.6-40.4-19.1-79.9-32.1-118.9c-1.6-5.4-4.2-10.6-4.5-16.3c2.7,3.9,5.4,8,6.2,12.7c0.8,5.5,3.1,10.6,5.4,15.6
			c0.9,2.2,3.2,3.2,5.1,4.4c-0.5-5.6-3.3-10.6-4.4-16.1c-0.7-3.6-2.2-7-3.9-10.3c-2.6-5.6-4.5-11.5-6.5-17.4
			C166.4,246.9,163.7,239,165.8,231.1L165.8,231.1z"/>
	</g>
	<g>
		<path fill="#F4D4A3" d="M762.1,238.1c3.8-2.4,7.9-4.4,12.1-6c-2.4,2-4.8,4-7.4,5.8c-14.4,9.8-29.6,18.4-44.5,27.4
			c-17.3,9.9-33.6,21.5-49.2,33.9c-38,30-73.4,64.1-100.9,104.1c-3.6,5.1-6.5,10.6-10.5,15.5c-0.5-0.6-1.5-1.7-2-2.3
			c8.8-15,19.2-29,30.2-42.4c23.8-28.8,51.5-54.2,80.7-77.3c12.3-9.5,24.6-19,37.8-27.2C725.9,258.3,744.1,248.3,762.1,238.1
			L762.1,238.1z"/>
	</g>
	<g>
		<path fill="#4563A8" d="M174.9,257.1c-0.9-4.3-2.2-9-0.4-13.3c4.8,6.9,6.9,15.1,9.8,22.8c6.5,18.2,10.6,37.1,16.4,55.6
			c3.3,10.6,5.2,21.5,7.9,32.2c2.7,11.3,3.3,23,5.5,34.5c0.5,3,2.2,5.7,3.7,8.3c1,3.5,1.9,7.1,3,10.6c0.2,10.4,0.1,20.9,0.1,31.3
			c-0.2,2.8,1.3,5.1,2.6,7.4c1.7,2.7,1.2,6,2.1,9c1.1,1.5,2.6,2.7,3.7,4.2c1.4,4-0.3,9.8,4.7,11.5c2.1-8.3,0.2-16.8,0.1-25.2
			c0-6.4-0.3-12.8,0.1-19.1c2.5,13.8,5.5,27.6,11.5,40.4c1.8,3.9,2.9,8.1,4.5,12.1c3.7-6.8,3.6-14.9,4-22.4c-0.6-16.2-3.9-32-6-48
			c-2-17-2.8-34-5.1-50.9c-2.7-23-6.7-45.8-12-68.3c1-0.2,1.9-0.4,2.9-0.6c2.8,5.2,6,10.2,8,15.8c0.7,4,1.2,8.1,1.9,12.1
			c2.2,12.9,2.3,26,4.1,38.9c3.8,28.4,6.1,57,10.5,85.3c1.3,5.7,4.1,11,4.6,16.9c1.2,0.1,2.3,0.3,3.5,0.4c0.6,4.6,1.1,9.3,2.5,13.8
			c1.8-2.6,2.9-5.6,3.8-8.6c0.7-0.5,1.5-1,2.2-1.5c1.1,7.8,3.4,15.4,6.3,22.7c0.5-1.3,0.9-2.7,1.4-4c0.6,6.1,1.2,12.3,3,18.2
			c1-6.1-0.1-12.4,1-18.5c1.1,1.9,2.2,3.6,3.4,5.5c0.3,1,0.6,1.9,0.9,2.9c0.6,4.9,1.9,9.6,3.8,14.1c2.2,7.3,4.9,14.9,10.9,20
			c3.6-26.1,1.9-52.6-1.1-78.7c-1.5-13.1-3.7-26-6-39c-1.1-5.9-1.6-11.9-3.9-17.4c-0.5,1.4-1,2.7-1.5,4.1c-2.8-5.3-2-11.9-5.4-16.9
			c-2.6-3.9-3.1-8.6-4.9-12.8c-1.4,4.8-1,9.8-1.2,14.8c-0.9,13.1-1.4,26.1-2.1,39.2c-1.4-0.9-1.8-2.5-1.9-4.1
			c-4.6-39.4-9.4-78.9-14.6-118.2c-0.8-6.4-2.3-12.8-2-19.2c4.4,2,8.1,5.3,11.9,8.3c7,10,13.6,20.7,16.5,32.6
			c2.8,7.7,7.7,14.6,10.4,22.3c3.3,10,7.5,19.7,10.1,29.9c1,8.1,3.7,15.9,5.2,23.9c9.6,45.5,11.8,92,14.7,138.2
			c0.5,12,1.9,24,1.9,36c-4.8-1.9-9.7-3.8-14.2-6.6c-5.6-3.6-6.5-11.2-11.8-15.1c-7.8-5.9-18.4-6-26.2-11.9c-3.7-2.8-6-7-7.8-11.1
			c-3-6.8-6-13.7-10.3-19.7c-1.7-2.3-3.9-4.7-6.9-5.1c-4.4-0.3-8.7,1-13-0.1c-6.5-1.5-11.9-5.8-16.2-10.7c-3.8-4.2-6.3-9.3-9.5-14
			c0,1.4,0,2.9,0,4.3c-1.9-3.4-3.1-7.1-3.9-10.9c0.9,1.1,1.9,2.2,2.9,3.2c-1.1-15.4-1.1-30.9-4-46c-3-19.9-7-39.6-11.9-59.1
			c-2.5-11.8-6.7-23.2-8.9-35.1c-1.4-8.6-6.3-16.2-7.2-24.9c3.1,3.2,6.2,6.5,8.2,10.5c1.5,3,3.4,5.8,5.8,8.2
			c-0.1-7.6-3.9-14.3-6.5-21.2C184.7,286.4,178.4,272.2,174.9,257.1L174.9,257.1z"/>
	</g>
	<g>
		<path fill="#F5C885" d="M790.9,247.4c2.8-1.5,5.8-2.7,8.9-3.7c-0.4,1.1-0.8,2.2-1.2,3.2c1.5,0,3,0.1,4.5,0.1
			c-3.3,2.6-7.2,4.1-11.4,4.3c0.1-1.1,0.3-2.1,0.5-3.2C791.8,247.9,791.2,247.6,790.9,247.4L790.9,247.4z"/>
	</g>
	<g>
		<path fill="#FAE8CE" d="M809.6,250.2c2.3-3.1,6.1-4.5,9.7-5.4C817,247.9,813.2,249.3,809.6,250.2L809.6,250.2z"/>
	</g>
	<g>
		<path fill="#9AB3D7" d="M412,245.9c4.4,2.9,8,6.7,11.7,10.3c12.2,11.2,23.7,22.9,35.1,34.9c27.5,28.8,53,59.3,77,91
			c4.1,5.4,7.7,11.2,12.2,16.2c-0.2,0.6-0.7,1.7-0.9,2.3c-0.3,0.2-0.9,0.6-1.3,0.8c-5.8-7.4-10.9-15.3-16.8-22.7
			c-12.6-16.6-25.4-33.1-39.2-48.8c-21.7-25.8-44.7-50.5-68.7-74.3C418,252.6,414.9,249.4,412,245.9L412,245.9z"/>
	</g>
	<g>
		<path fill="#BECEE5" d="M208.9,246.7c2.9,1.6,3.6,6.6,7.4,6.2c3.2,5.1,4.4,11.3,8.7,15.7c0.9,0.9,1.3,2.1,1.9,3.3
			c-0.7,0.7-1.4,1.5-2.2,2.2c-1.1-1.8-2.2-3.5-3.3-5.3c-1.8-3.4-4.1-6.6-6.5-9.7c2.2,9.9,5.6,19.5,7.6,29.5
			c1.9,8.8,4.2,17.5,5.6,26.4c0.9,6.4,2.8,12.8,2.8,19.3c-2.6-5.6-3-11.9-4.5-17.9c-3.4-18.2-7.4-36.4-12.9-54.1
			C212.1,257.2,209.7,252.2,208.9,246.7L208.9,246.7z"/>
	</g>
	<g>
		<path fill="#99B3D6" d="M245.8,250.7c5.2,2.3,9.3,6.3,13.3,10.3c4.3,4.8,8.5,10,10.9,16.1c-5.2-5.8-10.8-11.2-17.5-15.2
			c3.1,23.5,7,47,10.1,70.6c4.3,32.6,9.1,65.1,13.2,97.8c0.2,2.5,0.5,5,0.7,7.6c-0.1,5.5-0.4,11-1.8,16.4c-1.6-7.7-2-15.6-4-23.2
			c-0.5,7.9-1.1,15.8-4.1,23.2c-0.8-5.1-1.2-10.2-1.8-15.3c-1.1,2-2.3,4.1-3.4,6.1c-2-14.5-3-29.2-4.6-43.7
			c-1.5-18.2-4.1-36.4-5.1-54.6c-0.6-11-2.2-21.9-4.6-32.6c3.8,1.8,4.9,6.3,6.3,9.9c3.3,10.5,4.2,21.5,5.8,32.4
			c0.8,6.9-0.7,13.8,0.3,20.7c2.1,19.4,3.1,38.8,5.2,58.2c3.1-12.5,1.9-25.5,0.7-38.2c2.4,8.3,2.4,17,4.7,25.3
			c0.5-11.1-1.5-22.1-3-33.1c-1.8-12.5-4.2-24.9-6.2-37.4c-0.4-4.4-0.5-8.8-1.2-13.1c-3.5-22.7-7-45.5-10.8-68.2
			C247.8,263.8,246.1,257.3,245.8,250.7L245.8,250.7z"/>
	</g>
	<g>
		<path fill="#99B3D6" d="M158.2,252c2,2.6,3.7,5.4,5.8,8.1c1.2,1.7,2.7,3.3,2.8,5.5c0.3,5.7,2.9,10.9,4.5,16.3
			c13,39,24.6,78.5,32.1,118.9c1.7,10.7,4,21.4,4.6,32.2c0.5,8.8,1.4,17.5,2,26.2c-1-2.1-1.9-4.3-2.4-6.6c-3-13.9-3.1-28.2-5-42.2
			c-8.3-50.9-23.9-100.2-41.3-148.7C160,258.5,159,255.3,158.2,252L158.2,252z"/>
	</g>
	<g>
		<path fill="#F5CB8E" d="M702.5,255.4c1.8-1.3,3.9-1.8,6.1-1.5c-3.2,2.5-6.3,5.1-9.7,7.3c-4.8,3-9.2,6.6-13.8,9.8
			c-11.7,7.3-21.9,16.6-33,24.7c2.8-0.7,5.7-1.2,8.6-1.6c-1.1,1.8-2,3.6-2.9,5.5c-6.2,5.6-12.8,10.9-19.6,15.8
			c1.2-1.8,2.4-3.6,3.6-5.4c-11.3,8.2-20.2,19.2-31.8,27.1c0.9-3.2,1.7-6.5,4.1-8.9c4.9-4.9,10.8-8.5,16.3-12.8
			c4.5-3.8,8.2-8.3,11.5-13.2c-0.4,0-1.3-0.1-1.7-0.2c5.8-5.9,12.7-10.5,19.1-15.7C673.5,275.8,687.6,265.1,702.5,255.4L702.5,255.4
			z"/>
	</g>
	<g>
		<path fill="#FAE9D1" d="M776.1,258.5c2.3-1.3,4.8-2.5,7.2-3.6c0.2,0.4,0.4,1.2,0.6,1.6c1.1-0.1,2.2-0.2,3.3-0.2
			c-2.4,2.2-5.3,3.9-8,5.7C778.1,260.8,777.1,259.7,776.1,258.5L776.1,258.5z"/>
	</g>
	<g>
		<path fill="#F9E7CC" d="M685,271c4.7-3.2,9-6.8,13.8-9.8c1.4,0.6,2.8,1.3,4.2,1.9c-7.6,6.1-15.6,11.8-23.7,17.1
			C680.4,276.7,681.9,273.2,685,271L685,271z"/>
	</g>
	<g>
		<path fill="#5A7EB9" d="M252.4,261.8c6.7,4,12.3,9.5,17.5,15.2c1.5,1.7,2.4,3.8,3.1,6c-3.8-3-7.5-6.2-11.9-8.3
			c-0.2,6.5,1.2,12.8,2,19.2c5.3,39.4,10,78.8,14.6,118.2c0.1,1.5,0.5,3.2,1.9,4.1c0.7-13.1,1.2-26.2,2.1-39.2
			c0.2-4.9-0.2-10,1.2-14.8c1.8,4.2,2.3,8.9,4.9,12.8c3.4,5.1,2.5,11.6,5.4,16.9c0.5-1.4,1-2.7,1.5-4.1c2.3,5.6,2.8,11.6,3.9,17.4
			c2.3,12.9,4.5,25.9,6,39c3,26.1,4.7,52.6,1.1,78.7c-6-5.1-8.7-12.7-10.9-20c1.8,2.5,3.9,4.7,6,6.9c1.9-10.9,1.5-22,1.6-33
			c0.3-23-3-45.9-6.7-68.6c-0.5-2.8-1.1-5.6-1.9-8.3c-0.5,0.9-1.1,1.8-1.6,2.7c-1.5-7.7-2.8-15.4-4.8-22.9
			c-1.4,20.6-3.4,41.2-3.7,61.8c-0.2,3.5-0.6,7-1,10.4c-1.1-6.5-1.1-13.1-3.1-19.4c-0.3,1.8-0.5,3.6-0.7,5.4
			c-0.8-4.2-1.6-8.3-2.4-12.4c-0.3,1.5-0.5,2.9-0.7,4.4c-4.1-32.6-8.8-65.2-13.2-97.8C259.4,308.9,255.6,285.4,252.4,261.8
			L252.4,261.8z"/>
	</g>
	<g>
		<path fill="#F8FAFC" d="M318.9,262.1c8.9,7.4,16.4,16.3,24.8,24.3c22.3,23.8,44.1,48.1,64.5,73.5c5.4,7.5,12.1,14.1,16.9,22
			c-5.8-5.6-10.3-12.2-15.3-18.5c-7.1-9.2-15.2-17.5-22.5-26.5c-9.6-11.3-20-22-30-33c-4.1-4.9-8.9-9.2-13-14
			c-4.7-5.6-10.3-10.5-14.9-16.2C326,269.7,321.6,266.6,318.9,262.1L318.9,262.1z"/>
	</g>
	<g>
		<path fill="#F4D4A4" d="M748.2,278.2c5.9-3.5,11.5-7.4,17.8-10.2c-3.6,3-6.7,6.5-9.8,10.1c-5.5,4.9-12.2,8.5-17.3,13.9
			c6.2-2.9,11.6-7.2,17.6-10.5c7.8-4.5,15.3-9.7,23.5-13.4c-16.4,12-33.5,22.9-50,34.9c-16.6,11.1-32.1,23.8-47.1,36.9
			c-24.6,21.4-47.3,45-67.2,70.9c-3.4,4.3-7.6,8.5-9,14c-3.8,14.3-11,27.3-17,40.8l-0.3,0.7c-1.3-3-2.8-6-4.6-8.7
			c9.4-20.6,22.9-39.1,36.4-57.1c4.3-6.9,9.9-12.8,15.4-18.8c4.2-4.8,8.2-9.8,12.3-14.6c8.4-7.3,16.1-15.4,24.5-22.6
			c8.5-7.5,17.1-15,25.9-22.1c6.8-5.6,14.1-10.4,20-17c6.5-7,15.4-11.3,21.9-18.2c-2.1,0.9-4.1,1.8-6.1,3
			c-32.7,21.3-64.1,44.7-92.5,71.5c-10.6,9.4-20,20-29.5,30.5c-12.6,14.7-24.4,30.2-33.9,47.2c-0.9,1.8-2.4,3.1-4.3,3.7
			c-0.1-0.5-0.4-1.5-0.5-2c0.2-0.4,0.5-1.2,0.6-1.6c22.1-38.1,53.1-70.4,86.5-98.9C688.7,317.5,717.8,296.8,748.2,278.2L748.2,278.2
			z"/>
	</g>
	<g>
		<path fill="#82A0CC" d="M175.1,271.8c1.6,3.3,3.1,6.7,3.9,10.3c1.1,5.5,3.9,10.5,4.4,16.1c-1.9-1.2-4.2-2.1-5.1-4.4
			c-2.2-5-4.5-10.1-5.4-15.6c0.5,0.1,1.4,0.1,1.8,0.2c-0.2-1.3-0.5-2.7-0.5-4C174.5,273.7,174.9,272.4,175.1,271.8L175.1,271.8z"/>
	</g>
	<g>
		<path fill="#94AFD4" d="M388.8,280.9c4.7,4.1,8.4,9.1,12.5,13.7c16.7,19.4,32.9,39.2,48.6,59.5c3,3.5,5,8.2,9.3,10.4
			c3.5,1.7,7.4,3.2,9.8,6.5c4,5.4,8.9,10.3,11.6,16.6c0.4,1.7,0.7,3.5,1.8,4.9c9.4,13.1,18.2,26.7,26.6,40.4
			c3.7,6.1,7.1,12.4,11,18.3c-1.1,2.9-2.2,5.9-3.2,8.9c-15.1-25.5-31.1-50.5-48.6-74.4c-22.1-30.4-45.8-59.6-68.4-89.6
			C396.1,291.1,391.9,286.4,388.8,280.9L388.8,280.9z"/>
	</g>
	<g>
		<path fill="#F5BA64" d="M735,290c1.9-1.2,4-2.1,6.1-3c-6.5,7-15.4,11.2-21.9,18.2c-5.8,6.6-13.2,11.4-20,17
			c-8.8,7.2-17.4,14.6-25.9,22.1c-8.4,7.3-16.1,15.3-24.5,22.6c1.6-3.6,3.6-7,5.8-10.2c-8.8,6-15.8,14.1-23.4,21.4
			c-4.4,4.2-8.3,9-12.3,13.7c-11.3,12.5-21.5,26.1-30.7,40.3c-2.9,4.1-4.6,8.9-7.9,12.7c-1.7,0.5-3.6-0.1-5.3-0.2
			c-0.1-0.5-0.2-1.4-0.2-1.8c1.9-0.6,3.4-1.9,4.3-3.7c9.5-16.9,21.3-32.4,33.9-47.2c9.5-10.5,18.9-21.1,29.5-30.5
			C670.9,334.7,702.3,311.3,735,290L735,290z"/>
	</g>
	<g>
		<path fill="#5A7FB9" d="M242,304.9c1.9,2.9,3.5,5.9,4.8,9.1c2.4,10.7,4,21.6,4.6,32.6c1.1,18.3,3.6,36.4,5.1,54.6
			c1.6,14.6,2.6,29.2,4.6,43.7c1.1-2,2.3-4.1,3.4-6.1c0.6,5.1,1.1,10.2,1.8,15.3c3-7.4,3.7-15.3,4.1-23.2c2,7.6,2.4,15.5,4,23.2
			c1.4-5.3,1.7-10.9,1.8-16.4c0.6,5.1,1,10.3,0.1,15.4c-0.6,3.7-2.6,7-3.6,10.6c-0.8,3-2,6-3.8,8.6c-1.4-4.5-1.8-9.2-2.5-13.8
			c-1.2-0.1-2.3-0.3-3.5-0.4c-0.5-5.9-3.3-11.2-4.6-16.9c-4.4-28.3-6.6-56.9-10.5-85.3c-1.8-12.9-1.9-26.1-4.1-38.9
			C243.2,313,242.7,308.9,242,304.9L242,304.9z"/>
	</g>
	<g>
		<path fill="#B7C9E3" d="M417.2,305.8c2.8,2.9,5.6,5.7,8.2,8.9c7.1,8.6,14.8,16.8,21.3,25.9c0.7,4,3.6,7,5.6,10.4
			c-1.5-0.9-3.1-1.8-4.5-2.8c-9.2-12.7-19.1-24.8-29-37C418.2,309.4,417.8,307.6,417.2,305.8L417.2,305.8z"/>
	</g>
	<g>
		<path fill="#F4D4A4" d="M716.8,335.8c12.2-8.6,24.2-17.5,37.4-24.5c-7.3,8.8-17.4,14.6-26.1,21.9c-7.4,5.6-12.2,13.7-18.5,20.4
			c-6,6.4-12.1,12.6-18.8,18.2c1.7-2.3,3.4-4.8,3.2-7.9c-0.2-2.4,2.2-3.8,3.6-5.3c5.6-4.7,11-9.8,16.9-14.2c2.3-1.7,4.2-3.9,5.8-6.3
			c-7.4,4.1-13.9,9.6-20.6,14.6c-29.2,22.5-55.7,48.7-77.4,78.6c-10.1,14.3-19.2,29.4-25.6,45.7c-1-0.7-2-1.4-2.9-2.1l0.3-0.7
			c10.7-25.2,26.4-48.1,44.5-68.6C661.8,379.4,688.5,356.3,716.8,335.8L716.8,335.8z"/>
	</g>
	<g>
		<path fill="#F8FAFC" d="M207.1,319.1c2.9,7.3,4.4,15,6.1,22.6c2.1,7.3,3.5,14.8,4.6,22.3c-2-4.8-2.3-10-3.6-14.9
			C211.6,339.1,208.7,329.2,207.1,319.1L207.1,319.1z"/>
	</g>
	<g>
		<path fill="#5C80BA" d="M466.9,335.2c3.3,1.9,6.6,4,9.2,6.8c6.6,7.1,12.2,15.1,18.8,22.1c-1-2.4-1.9-4.8-2.8-7.1
			c1.4,1.3,2.8,2.6,4,4.1c11.5,14.2,22.4,29,33.1,43.9c2.5,3.7,5,7.4,8,10.7c-1,1.9-2,3.8-3,5.7c-9.7-13.4-18.9-27.2-29.2-40.2
			c-4.3-5.4-7.9-11.2-12.9-16c13,20.2,28,39.2,40.2,59.9c-0.6,1.1-1.1,2.1-1.7,3.2c-3.1-6.8-7.7-12.8-11.8-19
			C506.4,390.4,493,372.3,480,354C475.7,347.7,470.7,341.8,466.9,335.2L466.9,335.2z"/>
	</g>
	<g>
		<path fill="#9AB3D6" d="M299.9,338c1,1.3,2.1,2.7,2.8,4.3c12.3,26.4,19.8,54.9,24.5,83.6c4,23.6,6.2,47.4,7.5,71.2
			c1.2,8.5,0.7,17.2,1.5,25.8c0.6,6.7,0.1,13.4,0.7,20.1c0.9,9.6-0.1,19.4,1.3,29c0,7.6,0.5,15.2,0.9,22.8
			c-4.5-3.1-9.7-4.8-14.3-7.6c-5.2-3.1-5.9-9.9-10.1-13.9c-8.1-8.7-22.1-7.1-30-16c-4-4.9-6.1-11.1-7.8-17.2
			c3.2,3.5,6.8,6.8,11.2,8.8C295,552,303,553,309,558c5.1,4.1,6.1,11.6,11.9,15.1c4.6,2.7,9.6,4.7,14.1,7.6
			c-2.8-47.1-3.6-94.3-9.6-141.1c-2.7-21.1-6.8-42.1-12.3-62.7c-0.8-3.1-2-6-3.1-9C307.4,357.7,303.2,348,299.9,338L299.9,338z"/>
	</g>
	<g>
		<path fill="#F5BA64" d="M699.8,352.8c6.8-5,13.2-10.5,20.6-14.6c-1.6,2.4-3.5,4.6-5.8,6.3c-5.9,4.4-11.3,9.5-16.9,14.2
			c-1.5,1.5-3.8,2.9-3.6,5.3c0.2,3-1.5,5.5-3.2,7.9c-3.1,4-5.2,8.6-8.8,12.2c-5.6,5.7-11.6,11-17.1,16.8c-2.2,2-5,3.6-6.1,6.5
			c-0.9,2.4-1.3,5-2,7.5c-3.7,5.4-7.7,10.6-10.7,16.4c-2.3,4.5-5.2,8.6-7.9,12.8c-0.2-0.5-0.5-1.5-0.6-2c-1.7,1.5-3.4,3-4.7,4.9
			c-6.7,9.8-13.3,19.8-18.2,30.7c-3.2,6.5-5.1,13.6-7.9,20.3c-0.4-0.3-1.2-0.9-1.6-1.2c1.1-4.8,2.6-9.6,4.4-14.2
			c1.2-3.3,3-6.5,2.7-10.2c-4.3,5.5-5.6,12.4-8.5,18.6c-0.9-1.7-2.7-3.4-2.1-5.5c1.4-5.2,3.7-10.2,5.8-15.1c1.1-2.8,3.2-5.6,2.6-8.8
			c-5.3,5.8-6.9,13.8-10.8,20.5c-1.2-0.8-2.4-1.6-3.5-2.4c0.3-0.9,0.7-1.8,1.1-2.7c6.5-16.3,15.5-31.4,25.6-45.7
			C644.1,401.5,670.7,375.4,699.8,352.8L699.8,352.8z"/>
	</g>
	<g>
		<path fill="#7796C7" d="M234.1,354.9c2.7,7.4,3.2,15.4,4,23.1c0.4,4.7,1.3,9.5,0.8,14.2c-1.9-3-1.5-6.8-2.3-10.1
			C235.7,373,234.1,364,234.1,354.9L234.1,354.9z"/>
	</g>
	<g>
		<path fill="#F4AF4C" d="M631.3,378.3c7.6-7.4,14.6-15.5,23.4-21.4c-2.2,3.2-4.2,6.6-5.8,10.2c-4.1,4.9-8,9.9-12.3,14.6
			c-5.5,6-11.1,11.9-15.4,18.8c-13.6,18-27,36.5-36.4,57.1c-0.5,1.2-1,2.3-1.5,3.5c-0.6-2.9-1.3-5.8-2.2-8.7
			c-1.9-2.1-4.1-3.9-6.1-5.9c0-0.4,0.1-1.3,0.1-1.7c1.8,0.1,3.6,0.7,5.3,0.2c3.3-3.8,5-8.6,7.9-12.7c9.2-14.1,19.4-27.7,30.7-40.3
			C622.9,387.3,626.8,382.5,631.3,378.3L631.3,378.3z"/>
	</g>
	<g>
		<path fill="#96B0D5" d="M492.1,365.1c5,4.8,8.6,10.6,12.9,16c10.3,13,19.5,26.8,29.2,40.2c-0.7,1.2-1.3,2.5-1.9,3.7
			C520.1,404.2,505.1,385.3,492.1,365.1L492.1,365.1z"/>
	</g>
	<g>
		<path fill="#5A7FB9" d="M310,367.9c1.1,3,2.3,5.9,3.1,9c5.5,20.6,9.6,41.6,12.3,62.7c6,46.8,6.8,94.1,9.6,141.1
			c-4.5-2.9-9.5-4.9-14.1-7.6c-5.7-3.5-6.7-11-11.9-15.1c-6-5-14-6-20.8-9.2c-4.4-1.9-7.9-5.3-11.2-8.8c-0.2-0.5-0.7-1.5-0.9-2
			c-3.5-9.5-6.9-19.6-14.2-26.9c-3.1-3.4-8-1.5-12-1.5c-9.1,0.5-16.6-6-21.9-12.7c-4.7-5.3-7.3-12-10.9-18.1c-0.5-0.9-1-1.9-1.4-2.8
			c0-1.5,0-2.9,0-4.3c3.2,4.6,5.7,9.7,9.5,14c4.3,4.9,9.7,9.2,16.2,10.7c4.3,1.1,8.7-0.2,13,0.1c3,0.4,5.1,2.8,6.9,5.1
			c4.3,6.1,7.4,12.9,10.3,19.7c1.8,4.1,4.1,8.4,7.8,11.1c7.8,5.8,18.4,5.9,26.2,11.9c5.3,3.9,6.2,11.5,11.8,15.1
			c4.5,2.7,9.3,4.7,14.2,6.6c0-12-1.4-24-1.9-36c-2.8-46.3-5.1-92.8-14.7-138.2C313.7,383.7,311,376,310,367.9L310,367.9z"/>
	</g>
	<g>
		<path fill="#99B3D6" d="M287.4,379.9c2,7.5,3.3,15.2,4.8,22.9c0.5-0.9,1.1-1.8,1.6-2.7c0.7,2.7,1.4,5.5,1.9,8.3
			c3.8,22.7,7.1,45.6,6.7,68.6c-0.1,11,0.4,22.1-1.6,33c-2.1-2.2-4.2-4.5-6-6.9c-1.9-4.5-3.2-9.3-3.8-14.1c1.9,3,4.2,5.6,6.7,8.2
			c2.6-23.3,1.4-47-1.6-70.2c-1-6.1-1.2-12.4-3.4-18.3c-3,25.7-4.5,51.6-2.5,77.4c-1.1-1.8-2.3-3.6-3.4-5.5c-0.4-2.8-1-5.6-1.7-8.3
			c-0.1-10.2-1.1-20.3-1.4-30.5C284,421.1,286,400.5,287.4,379.9L287.4,379.9z"/>
	</g>
	<g>
		<path fill="#5E82BB" d="M482.4,392.5c-1.1-1.4-1.4-3.2-1.8-4.9c4,5.6,8.3,10.9,12.2,16.6c9.8,14.5,20,28.7,28.6,43.9
			c-0.5,1.1-0.9,2.2-1.3,3.2c-3.9-6-7.3-12.3-11-18.3C500.6,419.2,491.9,405.6,482.4,392.5L482.4,392.5z"/>
	</g>
	<g>
		<path fill="#C09581" d="M547.2,400.6l0.9-0.5c-0.1,0.7-0.2,2.1-0.3,2.8c-7.1,11.4-14,23.1-19.6,35.4c-0.6-0.3-1.6-0.9-2.2-1.2
			l0.3-0.7c0.8-1.7,1.6-3.4,2.5-5c0.5-1,1.1-2.1,1.6-3.1c0.5-1.1,1.1-2.2,1.7-3.2c0.6-1.2,1.3-2.5,1.9-3.7c1-1.9,2-3.8,3-5.7
			c2.9-4.7,5.6-9.6,8.8-14.1C546.3,401.3,546.9,400.8,547.2,400.6L547.2,400.6z"/>
	</g>
	<g>
		<path fill="#F6D9AD" d="M658.9,407.4c1.1-2.9,3.9-4.6,6.1-6.5c-0.7,5.6-4.3,10-8.1,14C657.6,412.4,658,409.8,658.9,407.4
			L658.9,407.4z"/>
	</g>
	<g>
		<path fill="#EC9A39" d="M547.9,403c2.6,2.1,5.5,4,8,6.2c1.9,2.2,2.5,5.2,3.6,7.9c-0.5,0.9-1,1.8-1.5,2.6c-3.4,5.6-6.4,11.3-9.4,17
			c-8.3,17-15,35-18.4,53.7c-1.6,6.5-2.8,13.2-3.4,19.8c-1.1,6-1.2,12.2-0.5,18.3c-0.9,10-0.3,20.2,1.9,30
			c6.7,38.5,27.5,74.1,57.6,98.9c2.2,2,4.5,3.9,6.9,5.7c6.2,4.6,12.3,9.3,18.9,13.2l0.7,0.5c0,2,0.6,4.2-0.3,6
			c-1.9,2.3-4.3,4-6.4,6.1l-0.7-0.2c-7.9-5.3-16.1-10.2-23.5-16.2c-10.1-8.2-20.2-16.4-28.6-26.4c-12.4-13.6-22.8-29-30-45.9
			c-18.8-42.9-19.6-92.8-4.4-136.9c2.9-8.5,6.6-16.7,10-25C533.9,426.1,540.7,414.4,547.9,403L547.9,403z"/>
	</g>
	<g>
		<path fill="#F8FAFC" d="M243.5,442.1c0.6-12.5-3-24.7-2.1-37.1c1.3,10.7,3.2,21.3,3.2,32.1C244.8,438.8,244.3,440.5,243.5,442.1
			L243.5,442.1z"/>
	</g>
	<g>
		<path fill="#D6B399" d="M559.4,417.1l0.4-0.7c0.5,0.6,1.5,1.7,2,2.3c0.6,0.8,1.1,1.6,1.7,2.4c0.5,0.8,1,1.5,1.6,2.3
			c-0.3,0.4-0.8,1.3-1,1.8c-0.2,0.3-0.5,1-0.7,1.3c-0.4-0.5-1.3-1.4-1.7-1.8c-0.3-0.4-1.1-1.3-1.4-1.8c-0.8-1-1.5-2.1-2.2-3.1
			C558.4,418.9,558.9,418,559.4,417.1L559.4,417.1z"/>
	</g>
	<g>
		<path fill="#F4D4A4" d="M940.1,423.1c14.3-1.7,28.5-4.2,42.7-6c-1.8,4.7-3.1,9.6-5.8,13.9c-3.4,4.1-8.9,5.6-12.2,9.9
			c-5.9,7.2-3.8,17.9-9.9,25.1c-5,5.6-12.4,7.9-18.9,11.1c3.7-3,7.5-6.2,9.3-10.7c2.6-6.6,2.4-14.4,6.8-20.2
			c3.3-4.5,9.3-6,12.5-10.5c2.4-4.2,3.7-8.9,5.3-13.4c-16.6,2.1-33.1,5-49.8,7c-42,5.7-84.2,10.5-125.6,19.3
			c-7.6,1.8-15.3,3-22.6,5.5c-13.5,3-26.6,7.5-40,10.9c26.1-11.2,54-17.5,81.8-23.3C855.4,433.6,897.8,428.8,940.1,423.1
			L940.1,423.1z"/>
	</g>
	<g>
		<path fill="#AD8378" d="M548.5,436.8c3-5.8,6-11.5,9.4-17c0.7,1,1.5,2.1,2.2,3.1c-3,5.5-6.2,11-8.9,16.6
			C550.3,438.6,549.4,437.7,548.5,436.8L548.5,436.8z"/>
	</g>
	<g>
		<path fill="#F5BA64" d="M920.1,429.2c16.7-2,33.2-4.9,49.8-7c-1.6,4.5-2.8,9.2-5.3,13.4c-3.2,4.5-9.2,6-12.5,10.5
			c-4.4,5.9-4.2,13.6-6.8,20.2c-1.8,4.5-5.6,7.7-9.3,10.7c-1.3,0.7-2.6,1.3-3.9,2c-7.3,2.7-14.8,6.1-20.2,11.9
			c-2.9,2.9-0.8,6.9-0.4,10.3c1.3,5.8-2,11.3-5.7,15.5c-4.7,5.5-11,9.2-17,13.1c-2.3,1-4.6,2-6.8,3.1c-0.8-0.1-2.4-0.2-3.2-0.3
			c7.9-5.1,16.4-10.9,19.7-20.1c1.9-4.4,0.1-9.1-0.2-13.6c-0.3-2.6,1.7-4.6,3.5-6.1c8-6.4,18.2-9.4,26.4-15.6
			c7.8-6.9,5.7-18.6,11.3-26.7c3-4.5,8.7-5.9,12-10c2.9-4.3,4.7-9.3,5.5-14.4c-9.9,0.9-19.6,3-29.4,4.4c-19.6,2.6-39.2,5.5-58.9,8.1
			c-23.9,3-47.6,6.7-71.3,10.8c-8.6,1.3-16.9,4.3-25.6,4.5c7.3-2.5,15.1-3.8,22.6-5.5C835.9,439.7,878.1,434.9,920.1,429.2
			L920.1,429.2z"/>
	</g>
	<g>
		<path fill="#6775A5" d="M560.1,422.9c0.4,0.4,1.1,1.3,1.4,1.8c-3.8,6.1-6.7,12.7-10.4,18.8l-0.9-0.9c0.3-1,0.6-2.1,1-3.1
			C554,433.9,557.2,428.5,560.1,422.9L560.1,422.9z"/>
	</g>
	<g>
		<path fill="#BE9687" d="M561.5,424.7c0.4,0.4,1.3,1.3,1.7,1.8L563,427c-8.7,15.1-16.1,31.1-21.1,47.8c-2.9,8.3-4.4,16.9-6.4,25.4
			c-0.3-1.2-0.6-2.5-0.9-3.7c0.3-4.7-0.7-9.6,0.6-14.2c1-3.8,2-7.8,5.2-10.3c-0.8-8,3.3-15.1,6.1-22.2c0.7-0.2,2.2-0.5,2.9-0.6
			c0.6-1.9,1.2-3.7,1.8-5.6C554.8,437.4,557.8,430.8,561.5,424.7L561.5,424.7z"/>
	</g>
	<g>
		<path fill="#5172B2" d="M276.4,425.8c0.9,4.1,1.7,8.3,2.4,12.4c1,9.3,1.8,18.6,3.3,27.8c0.3,2.3,1.7,4.3,2.9,6.2
			c0.7,2.7,1.3,5.5,1.7,8.3c-1.1,6.1,0,12.4-1,18.5c-1.8-5.9-2.4-12.1-3-18.2c-0.5,1.3-0.9,2.7-1.4,4c-2.9-7.3-5.2-14.9-6.3-22.7
			c-0.7,0.5-1.5,1-2.2,1.5c1-3.6,3-6.9,3.6-10.6c0.8-5.1,0.5-10.3-0.1-15.4c-0.2-2.5-0.5-5-0.7-7.6
			C275.9,428.7,276.1,427.3,276.4,425.8L276.4,425.8z"/>
	</g>
	<g>
		<path fill="#F3AD49" d="M927.6,430.6c9.8-1.4,19.6-3.5,29.4-4.4c-0.8,5.1-2.7,10.1-5.5,14.4c-3.3,4.1-9,5.5-12,10
			c-5.6,8.1-3.5,19.8-11.3,26.7c-8.2,6.2-18.4,9.2-26.4,15.6c-1.8,1.5-3.9,3.5-3.5,6.1c0.4,4.5,2.1,9.2,0.2,13.6
			c-3.4,9.2-11.9,15-19.7,20.1c-17.9,5-36.7,4.4-54.8,8.2c-32.5,5.1-64.8,11-97.3,16.6c-10.4,1-20.4,4.2-30.8,5.2
			c2.2-2,4.4-4.2,7.1-5.6c3.1-1.6,6.8-1.7,9.4-4.1c-5.5-0.6-10.9,1-16.3,2c-8.3,1.6-16.4,3.8-24.7,5.2c-11.7,1.9-23.5,4.4-35.4,3.5
			c-1.9,0-3.3-1.4-4.7-2.6c2.4-1.2,4.9-2.2,7.4-3.2c6.9-0.6,13.5-2.4,20.3-3.6c21.3-3.8,42.9-5.8,64.4-8.7
			c11.5-1.9,23.1-3.8,34.7-5.3c16.8-3.4,34.2-2.6,50.7-7.4c9.7-0.6,19.3-0.8,29-1.1c3.9-0.2,8-0.5,11.4-2.5c2.6-1.6,5.6-2,8.6-2.5
			c3-0.2,4.2-4.1,7.2-4.4c3.4-0.6,7.2-0.6,9.6-3.5c-1.8-0.6-3.7-1.1-5.6-1.1c-11.8,0-23.4,2.9-35.2,1.9c5.1-1.7,10.4-2.5,15.3-4.5
			c2.6-0.8,5.2-1.6,7.8-2.3c7.8-2,14.9-6.1,22.3-9.1c-4.4-2.4-9.5-2.1-14.3-1.9c-6.7,0.4-13.5,0.7-20.1,1.8
			c-11.8,1.9-23.7,3.5-35.4,5.6c-21,2.6-42.2,3-63.3,4.9c-18,1.7-36,2.8-54,5c-3,0.2-6.4,1.3-8.8-1.2c3-1.2,5.8-2.6,8.8-4
			c2.5-0.8,5.1-1.5,7.6-2.3c15.1-1.2,30.2-2.4,45.3-2.6c26.2-1.9,52.3-4,78.3-7.6c8.1-1.5,16.7-1.6,24.4-4.8
			c3.5-1.6,7.6-1.8,10.5-4.6c3.2-3.2,8.2-2.6,12.2-4.3c-3.6-1.8-7.5-2.8-11.4-3.8c3.3-2.7,6.4-6.2,10.7-7.1c5.3-1.2,10.6-2,15.9-3.1
			c-1.4-1-2.7-2-4-3c1.5-0.8,3-1.8,4.5-2.6c1-0.3,2-0.7,3-1c6.2-1,11.8-3.9,17.3-6.9c3.6-1.6,7.3-3.4,10-6.3
			c-3.7-1.5-7.7-1.1-11.6-1c-16.5,0.7-32.9,2.7-49.4,4.4c-16.9,2.4-33.8,5.2-50.7,8.4c-4,0.8-8.6,0.6-12,3.2c-3,2.3-6.5,4-10.2,4.7
			l-0.9,0.1c-3.9-0.4-7.4,1.4-9.9,4.4c8.2,2.9,17.1-0.1,25.3,2.4c-1.6,1-3.4,1.8-5.4,2c-12.1,1.8-24.5,1.7-36.6,3.5
			c-10.5,1-21,2.3-31.5,3.2c-16,0.8-31.8,3-47.7,4.4c-2.1,0.1-4.1-0.4-6.1-0.8c1.9-3.4,5-5.7,8.1-7.9c5.5-2.4,11-5.1,16.7-7
			c7.1-2.5,14.6-3.7,21.6-6.6c5.2-2.2,10.3-4.3,15.6-6.3c13.4-3.4,26.5-7.9,40-10.9c8.7-0.2,17-3.2,25.6-4.5
			c23.7-4.1,47.5-7.8,71.3-10.8C888.4,436.1,908,433.2,927.6,430.6L927.6,430.6z"/>
	</g>
	<g>
		<path fill="#E99A3E" d="M563,427c1.9,1,4,1.8,5.4,3.5c0.6,1.8,0.8,3.7,1,5.5c-0.2,0.4-0.5,1.1-0.7,1.5c-3.6,6.6-6.8,13.4-9.8,20.2
			c-1.3,2.8-2.4,5.7-3.4,8.6c-1.7,5-3.5,10-4.9,15.2c-1,3.4-1.9,6.8-2.6,10.3c-2.4,10.2-3.6,20.5-3.8,31
			c-1.3,30.2,6.5,61.2,23.2,86.6c2.7,5.7,6.9,10.5,10.7,15.5c6.5,8.4,14.4,15.7,22.5,22.5c5.7,4.8,11.4,9.6,18,13.2
			c4,3.1,0.5,7.8-1.7,10.8c-0.9-0.5-1.8-1-2.6-1.5c-6.2-4.1-12.2-8.5-18-13.1c-2.4-2-4.8-3.9-7.1-6c-20.5-17.9-37.2-40.7-46.5-66.4
			c-4.3-12.3-7.1-25.1-8.8-38c-0.1-8-0.7-16-1-24.1c1.1-7.3,1.7-14.7,2.5-22c2-8.5,3.6-17.1,6.4-25.4
			C546.9,458.1,554.3,442.2,563,427L563,427z"/>
	</g>
	<g>
		<path fill="#7999C8" d="M279.5,432.8c2.1,6.3,2.1,12.9,3.1,19.4c0.5-3.5,0.9-7,1-10.4c0.3,10.2,1.2,20.3,1.4,30.5
			c-1.2-2-2.6-3.9-2.9-6.2c-1.5-9.2-2.3-18.5-3.3-27.8C279,436.4,279.3,434.6,279.5,432.8L279.5,432.8z"/>
	</g>
	<g>
		<path fill="#D7AF8C" d="M569.4,436.1c0.4-0.9,0.9-1.7,1.3-2.6c0.8,1.3,1.5,2.6,2.4,3.9c-0.6,1.2-1.1,2.5-1.6,3.7
			c-0.9-1.2-1.8-2.4-2.7-3.5C568.9,437.2,569.3,436.4,569.4,436.1L569.4,436.1z"/>
	</g>
	<g>
		<path fill="#CFA88A" d="M526.1,437.1c0.6,0.3,1.6,0.9,2.2,1.2c-3.4,8.3-7.1,16.5-10,25c-0.4-0.6-1.3-1.9-1.7-2.5l0.2-0.7
			c1-3,2.1-5.9,3.2-8.9c0.4-1.1,0.9-2.2,1.3-3.2C523,444.5,524.7,440.9,526.1,437.1L526.1,437.1z"/>
	</g>
	<g>
		<path fill="#CAA184" d="M530.1,490.5c3.4-18.7,10.1-36.6,18.4-53.7c0.9,0.9,1.8,1.8,2.7,2.7c-0.4,1-0.7,2-1,3.1
			c-1.4,2.3-2.7,4.7-3.8,7.2c-2.8,7.1-6.9,14.3-6.1,22.2c-3.2,2.5-4.2,6.6-5.2,10.3c-1.3,4.6-0.3,9.5-0.6,14.2
			c-0.2,0.3-0.7,1-0.9,1.4C533.1,495.2,532.9,492,530.1,490.5L530.1,490.5z"/>
	</g>
	<g>
		<path fill="#AD8378" d="M558.9,457.8c3-6.9,6.2-13.7,9.8-20.2c0.9,1.2,1.8,2.4,2.7,3.5l-0.3,0.7c-3.3,6.1-6.2,12.4-8.9,18.8
			C561.2,459.6,560,458.7,558.9,457.8L558.9,457.8z"/>
	</g>
	<g>
		<path fill="#A8B3C8" d="M573.1,437.4l0.5,0.6c0.3,0.3,1,1,1.3,1.3c-0.2,0.4-0.5,1.2-0.6,1.6c-0.6,0.9-1.3,1.8-1.9,2.6
			c-0.3-0.4-0.9-1.3-1.2-1.7l0.3-0.7C572,439.8,572.5,438.6,573.1,437.4L573.1,437.4z"/>
	</g>
	<g>
		<path fill="#BD937E" d="M574.3,440.9c0.1,0.5,0.4,1.5,0.5,2c0.1,0.5,0.2,1.4,0.2,1.8c0,0.4-0.1,1.3-0.1,1.7
			c-8.2,14.4-14,30-18.5,46c-0.8-1.8-1.6-3.5-2.3-5.3c1.9-5.3,4.1-10.6,4.5-16.3l0.2-0.7c0.8-2.6,1.8-5.2,2.8-7.7
			c0.9-0.4,1.9-0.7,2.3-1.7c3-5.7,5.7-11.6,8.6-17.3C573,442.6,573.6,441.8,574.3,440.9L574.3,440.9z"/>
	</g>
	<g>
		<path fill="#6874A2" d="M571.2,441.8c0.3,0.4,0.9,1.3,1.2,1.7c-2.9,5.7-5.6,11.6-8.6,17.3c-0.4,1-1.4,1.3-2.3,1.7
			c0.2-0.5,0.5-1.5,0.7-1.9C565,454.2,567.9,447.9,571.2,441.8L571.2,441.8z"/>
	</g>
	<g>
		<path fill="#F4AE4B" d="M633,447c1.3-1.9,3-3.4,4.7-4.9c0.2,0.5,0.5,1.5,0.6,2c-5.8,10.4-11.2,21.2-14.4,32.8
			c-6,15.9-9.4,33.1-7.9,50.2c0.2,4.8,3.1,8.9,4.7,13.3c2,1.6,4.7,0.8,7,0.5c33.3-5.1,67.1-6.9,100.6-10.5
			c24.1-3.6,48.3-7.6,72.8-8.3c2,0,4,0.1,6.1,0.2c-12.6,2.7-25.4,3.7-38.1,5.6c-17.8,2.9-35.8,5.3-53.6,8.4
			c-26.4,3.9-52.9,6.9-79.3,10.8c-3.9,0.5-7.8,0.9-11.6,1.4c-0.2,1.2-0.4,2.4-0.5,3.7l-0.1,0.9c-0.8,1.1-1.7,2.2-2.5,3.2
			c0-3.9,1-7.9,0.2-11.8c-1.6-2.8-4.4-4.8-5.3-7.9c-1.8-5.7-2-11.8-3.3-17.6c-1.2-5.1-3-10.2-5.7-14.7c-0.6,0.3-1.8,0.8-2.4,1
			c-0.5-5.6-3.9-10.4-5.8-15.5c-0.9-2.5-3-4.2-4.9-5.9l0.2-0.7c0.4-1.1,0.8-2.2,1.2-3.2c1.2,0.8,2.4,1.6,3.5,2.4
			c3.9-6.7,5.6-14.6,10.8-20.5c0.6,3.2-1.5,5.9-2.6,8.8c-2.1,5-4.4,9.9-5.8,15.1c-0.6,2.1,1.2,3.8,2.1,5.5
			c2.9-6.2,4.2-13.2,8.5-18.6c0.3,3.6-1.5,6.9-2.7,10.2c-1.8,4.6-3.3,9.4-4.4,14.2c0.4,0.3,1.2,0.9,1.6,1.2
			c2.7-6.7,4.7-13.8,7.9-20.3C619.7,466.8,626.3,456.8,633,447L633,447z"/>
	</g>
	<g>
		<path fill="#A5ADBF" d="M546.4,449.8c1.1-2.5,2.5-4.8,3.8-7.2l0.9,0.9c-0.5,1.9-1.1,3.8-1.8,5.6
			C548.6,449.3,547.1,449.6,546.4,449.8L546.4,449.8z"/>
	</g>
	<g>
		<path fill="#E19644" d="M556.4,492.4c4.5-15.9,10.3-31.6,18.5-46c2,2,4.3,3.7,6.1,5.9c-1.8,0.7-4.4,0.3-5.4,2.4
			c-7.6,13.6-12.3,28.6-16.2,43.7c-7.5,34.1-3.3,71,13.2,101.9c4.7,8.6,10.8,16.3,17.3,23.7c9,10.9,20.2,19.7,31.4,28.3
			c-0.7,2.2-1.3,4.5-2,6.8c-0.2,0.3-0.6,1-0.8,1.4c-6.6-3.6-12.3-8.4-18-13.2c-8.1-6.8-15.9-14.1-22.5-22.5c-3.8-5-8-9.8-10.7-15.5
			c-0.2-4.7-3.4-8.3-5.3-12.4c-4.8-9.4-7.7-19.5-10.4-29.6c-1.3-5.1-1.9-10.2-2.2-15.4c3.3,18,8.8,36,19.4,51.2
			c-2.3-6.2-5.8-11.9-7.9-18.2c-3.6-9.1-5.8-18.7-7.6-28.3c-1.1-6.1-1.2-12.2-2.2-18.3c0.3-12,0.9-24,3.1-35.7
			C555,499.2,555.8,495.8,556.4,492.4L556.4,492.4z"/>
	</g>
	<g>
		<path fill="#EC9B39" d="M575.7,454.7c1-2,3.6-1.7,5.4-2.4c0.9,2.9,1.6,5.8,2.2,8.7c-0.1,0.4-0.4,1.1-0.6,1.4
			c-3.7,7.4-6.5,15.2-9.2,23c-1.5,3.5-2.3,7.3-3,11c-4.1,15.2-5.6,31.1-4.2,46.9c1.6,26.5,11.7,52.5,28.8,72.9
			c2.2,2.9,4.8,5.5,7.4,8.1c6.2,6.7,13.3,12.5,20.6,18l0.4,0.6c0.2,2.2,0.2,4.5,0.3,6.8c-0.8,0.9-1.7,1.7-2.4,2.6
			C610.2,643.7,599,635,590,624c-6.5-7.4-12.6-15.1-17.3-23.7c-16.5-30.9-20.7-67.8-13.2-101.9C563.4,483.4,568.1,468.4,575.7,454.7
			L575.7,454.7z"/>
	</g>
	<g>
		<path fill="#F5BB65" d="M855.5,457.3c16.4-1.7,32.9-3.8,49.4-4.4c3.9,0,7.9-0.4,11.6,1c-2.8,3-6.4,4.7-10,6.3c0-1-0.1-1.9-0.1-2.9
			c-34.3-0.1-68.5,4.7-102.2,10.9c-3.5,0.8-6.5,2.9-10,3.9c-3.8,1.1-7.7,1.2-11.5,1.4c3.7-0.7,7.2-2.4,10.2-4.7
			c3.4-2.7,7.9-2.4,12-3.2C821.7,462.5,838.6,459.7,855.5,457.3L855.5,457.3z"/>
	</g>
	<g>
		<path fill="#F4D3A3" d="M804.2,468.3c33.7-6.2,67.8-11,102.2-10.9c0,1,0.1,1.9,0.1,2.9c-5.5,3-11.1,5.9-17.3,6.9
			c1.9-1.6,3.5-3.4,5.2-5.3c-20.9-1.2-41.7,1.2-62.4,4c-8.4,1.4-16.9,2-25.1,4.6c18.6,0.7,37.3,1.2,55.9,0.1
			c7.8-0.4,15.6-1.7,23.4-2.4c-1.5,0.9-3,1.8-4.5,2.6c-6.1,1.9-11.8,4.6-18.1,5.8c-8.8,1.7-17.8,3.1-26.8,3.5
			c-3.5-0.1-7-0.2-10.5-0.2c0.2-0.5,0.5-1.6,0.7-2.2c1.4-0.1,2.8-0.2,4.2-0.4c-2.4-0.4-4.7-0.7-7.1-0.7c-14.2,0.1-28.4-1.2-42.6-0.9
			c0.1-0.5,0.2-1.6,0.2-2.1l0.9-0.1c3.9-0.2,7.8-0.4,11.5-1.4C797.7,471.2,800.7,469.1,804.2,468.3L804.2,468.3z"/>
	</g>
	<g>
		<path fill="#D7AE8A" d="M558.9,457.8c1.1,0.9,2.2,1.8,3.3,2.8c-0.2,0.5-0.5,1.5-0.7,1.9c-1,2.5-2,5.1-2.8,7.7
			c-1.1-1.3-2.2-2.5-3.2-3.8C556.5,463.5,557.6,460.6,558.9,457.8L558.9,457.8z"/>
	</g>
	<g>
		<path fill="#D8AF8B" d="M583.3,461c0.5-1.2,1-2.4,1.5-3.5c1.8,2.7,3.3,5.7,4.6,8.7c-0.6,1-1.1,2-1.7,3c-1.5-2.4-3.3-4.6-5-6.8
			C582.9,462.1,583.2,461.4,583.3,461L583.3,461z"/>
	</g>
	<g>
		<path fill="#B28A7A" d="M515.4,464.3c0.4-1.1,0.8-2.3,1.3-3.4c0.4,0.6,1.3,1.9,1.7,2.5c-15.2,44.1-14.4,94,4.4,136.9
			c7.2,16.9,17.7,32.3,30,45.9c8.4,10,18.5,18.2,28.6,26.4c7.4,6,15.6,10.9,23.5,16.2c0.3,0.6,0.9,1.7,1.2,2.3l-1-0.1l-0.8-0.2
			c-0.6-0.2-1.6-0.5-2.2-0.7c-4.6-3-9.2-6.1-13.8-9.2c-1.4-1-2.8-2.1-4.2-3.1c-0.5-0.3-1.4-1-1.8-1.4c-0.4-0.3-1.1-0.9-1.5-1.1
			c-0.5-0.4-1-0.8-1.5-1.1c-1-0.8-1.9-1.5-2.9-2.2c-1.4-1.1-2.9-2.2-4.3-3.4c-1-0.8-2-1.7-3-2.6c-11.9-10.8-23.3-22.4-32.4-35.8
			c-6.8-9.6-12.3-20.1-17.2-30.8c-2-5.7-4.3-11.2-6.4-16.8c-1.3-5.9-2.9-11.8-4.3-17.6c-1.6-8.3-2.4-16.8-3.7-25.1
			c-0.1-6.9,0.1-13.9-0.3-20.8c1-10.6,2.1-21.3,4.4-31.7c0.4-1.7,0.8-3.5,1.2-5.2c0.9-3.6,1.7-7.2,2.6-10.8
			C513.8,469,514.5,466.6,515.4,464.3L515.4,464.3z"/>
	</g>
	<g>
		<path fill="#B18576" d="M573.5,485.5c2.7-7.8,5.5-15.6,9.2-23c1.7,2.2,3.5,4.4,5,6.8c0,0.4,0.1,1.1,0.2,1.4
			c-3.3,6-6,12.2-8.2,18.7l-0.3-0.6c-0.1-0.3-0.4-0.9-0.5-1.2c-0.8,0.7-1.5,1.4-2.2,2.1C575.6,488.2,574.6,486.8,573.5,485.5
			L573.5,485.5z"/>
	</g>
	<g>
		<path fill="#9CB5D7" d="M589.4,466.2l0.3-0.7c1.4,2.9,2.9,5.9,4.4,8.7l-0.3,0.7c-0.6,1.3-1.1,2.7-1.6,4c-1.3-2.8-2.9-5.6-4.3-8.3
			c0-0.3-0.1-1-0.2-1.4C588.3,468.2,588.9,467.2,589.4,466.2L589.4,466.2z"/>
	</g>
	<g>
		<path fill="#B88D7B" d="M550.7,481.6c1.3-5.1,3.1-10.1,4.9-15.2c1.1,1.2,2.1,2.5,3.2,3.8l-0.2,0.7c-2.1,5-3.9,10.1-4.8,15.5
			C552.8,484.7,551.8,483.1,550.7,481.6L550.7,481.6z"/>
	</g>
	<g>
		<path fill="#5C80BA" d="M558.6,470.9c-0.3,5.7-2.6,11-4.5,16.3l-0.3-0.8C554.7,481,556.5,475.8,558.6,470.9L558.6,470.9z"/>
	</g>
	<g>
		<path fill="#4563A8" d="M579.7,489.3c2.3-6.4,5-12.7,8.2-18.7c1.5,2.8,3,5.5,4.3,8.3l-0.3,0.7c-3,6.6-4.7,13.7-6.6,20.7
			C583.1,496.9,581.5,493.1,579.7,489.3L579.7,489.3z"/>
	</g>
	<g>
		<path fill="#F5BB66" d="M863.6,476.6c6.2-1.2,12-4,18.1-5.8c1.3,1,2.7,2,4,3c-5.3,1.2-10.6,1.9-15.9,3.1c-4.4,1-7.4,4.4-10.7,7.1
			c3.9,1,7.8,1.9,11.4,3.8c-4,1.7-9,1.1-12.2,4.3c-2.9,2.7-7,3-10.5,4.6c-7.8,3.1-16.3,3.3-24.4,4.8c-26,3.7-52.1,5.7-78.3,7.6
			c-15.1,0.2-30.2,1.4-45.3,2.6c2.7-0.9,5.4-1.9,8.1-3c10-1.4,20.1-2.6,30.2-2.8c24.4-0.4,48.6-3,72.9-5.3
			c11.3-1.4,22.7-2.5,34.1-4.1c-1.7-1-3.5-2-5.2-3.1c4.8-0.7,9.6-1.1,14.3-2.1c-6.5-2.3-13.5-2.1-20.3-2.9c6.2-2.5,13-2.4,19.4-4.1
			c-3.8-2.4-8.4-1.5-12.6-1.3c-0.7,0-2,0-2.7,0c1-0.7,2.1-1.3,3.1-2c-1.4-0.3-2.9-0.7-4.3-1C845.8,479.8,854.8,478.3,863.6,476.6
			L863.6,476.6z"/>
	</g>
	<g>
		<path fill="#F5BB66" d="M771.8,478c2.5-3,6-4.7,9.9-4.4c-0.1,0.5-0.2,1.6-0.2,2.1c14.2-0.3,28.4,1,42.6,0.9c2.4,0,4.8,0.4,7.1,0.7
			c-1.4,0.1-2.8,0.2-4.2,0.4c-7.4,0.8-15.2,0.6-22.3,3c8.5,1.2,17,0.1,25.5,0.7c-5.5,0.7-11,1-16.4,2.1c-21.2,2.6-42.5,4.3-63.8,6.6
			c-25,2.4-50,5-75.1,7.1c-5.3,0.5-10.7,1-16.1,0.7c3.3-4.4,7.9-7.6,12.3-10.8c2.2-0.8,4.5-1.5,6.8-2.2c-3.1,2.2-6.2,4.6-8.1,7.9
			c2,0.4,4,0.9,6.1,0.8c15.9-1.3,31.8-3.6,47.7-4.4c10.5-0.9,21-2.2,31.5-3.2c12.1-1.8,24.5-1.7,36.6-3.5c1.9-0.2,3.7-1,5.4-2
			C788.9,477.9,780,480.9,771.8,478L771.8,478z"/>
	</g>
	<g>
		<path fill="#D9B08A" d="M593.9,475c1,0.7,1.9,1.4,2.9,2.1c-0.4,0.9-0.7,1.8-1.1,2.7c-0.4,1.1-0.8,2.1-1.2,3.2
			c-0.8-1.1-1.7-2.2-2.5-3.3l0.3-0.7C592.8,477.6,593.3,476.3,593.9,475L593.9,475z"/>
	</g>
	<g>
		<path fill="#F5D4A3" d="M616.1,527.1c-1.5-17.1,2-34.3,7.9-50.2c-1.7,9.6-4.6,18.9-5.5,28.7c-0.8,8.9-1.4,17.9,0.3,26.8
			c1.8,0,3.6,0,5.3-0.1c5-0.7,9.9-1.6,14.9-2.2c-6.1,2.7-12.4,5-18.7,7.3c2.3-0.1,4.7-0.4,6.9-0.9c11.1-2.8,22.5-4.8,33.8-6.3
			c1.4-0.2,2.8-0.7,4.1-1.1c-5.4-0.3-10.8,0.5-16.2,0.8c1-0.6,2-1.2,3-1.8c3.8-1.9,7.8-3.2,11.8-4.2c-0.1,0.5-0.4,1.5-0.5,2
			c26.9-3.3,54-5.5,81-7.4c11.6-0.7,23.2-2,34.8-2.2c-4.8,1.2-9.7,1.9-14.3,3.4c12.7,0,25.3-2,37.8-4.1c3.6-0.6,6.4-3.3,10-3.8
			c17.4-2.9,35-6.3,52.6-4.3c-3.7,3-9.1,1.9-13.5,3.1c1.7,0.8,3.4,1.5,5.1,2.3c-2.6,0.8-5.2,1.5-7.8,2.3c-9.5,0.4-18.8,2.1-28.3,2.5
			c-21.2,0.8-42.3,2.6-63.2,6c-19.1,3.5-38.5,4.6-57.8,6.4c-21,1.7-42.1,3.8-62.9,7c-5.5,0.9-10.9,1.9-16.3,3.3
			C619.2,536,616.3,531.9,616.1,527.1L616.1,527.1z"/>
	</g>
	<g>
		<path fill="#F5C681" d="M804.6,480.8c7.2-2.4,14.9-2.2,22.3-3c-0.2,0.5-0.5,1.6-0.7,2.2c3.5,0,7,0.1,10.5,0.2
			c1.4,0.3,2.8,0.6,4.3,1c-1.1,0.7-2.1,1.3-3.1,2c0.7,0,2,0,2.7,0l0.5,0.6c-6,0.5-12,1.1-17.9,1.6c-3.2-0.6-6.3-1.4-9.4-1.8
			c5.4-1,10.9-1.4,16.4-2.1C821.6,480.8,813.1,482,804.6,480.8L804.6,480.8z"/>
	</g>
	<g>
		<path fill="#9AB3D6" d="M217.2,478.9c3.6,6,6.2,12.7,10.9,18.1c5.3,6.7,12.8,13.2,21.9,12.7c4,0.1,8.8-1.9,12,1.5
			c7.3,7.3,10.7,17.4,14.2,26.9c-3.8-5.2-6.1-12-12-15.2c-4.5-1.1-9.2,1-13.8-0.2c-8.4-2-14.6-8.7-19.4-15.6
			c-3.8-5.2-5.5-11.5-9.3-16.7C219.3,486.9,218,482.9,217.2,478.9L217.2,478.9z"/>
	</g>
	<g>
		<path fill="#F4D4A4" d="M911.9,491c5.4-5.8,12.8-9.2,20.2-11.9c-3.3,2.8-7.2,5.2-9.2,9.1c-0.2,5,2.4,10.1,0.3,15.1
			c-3.2,8.1-10.4,13.9-17.8,18.2c-5.6,2.7-10.7,6.5-16.6,8.5c6-4,12.3-7.6,17-13.1c3.7-4.2,7-9.7,5.7-15.5
			C911.1,497.9,909.1,493.8,911.9,491L911.9,491z"/>
	</g>
	<g>
		<path fill="#AE8478" d="M592,479.7c0.8,1.1,1.7,2.2,2.5,3.3l-0.2,0.7c-3.4,9.5-6.1,19.4-7.4,29.4c-0.9-1.5-1.9-2.9-2.8-4.4
			c0-0.4-0.1-1.2-0.2-1.5c0.4-2.3,0.8-4.5,1.4-6.8C587.3,493.4,589,486.3,592,479.7L592,479.7z"/>
	</g>
	<g>
		<path fill="#D1AB8B" d="M548.1,491.8c0.7-3.5,1.5-6.9,2.6-10.3c1.1,1.5,2.1,3.1,3.1,4.8l0.3,0.8c0.7,1.8,1.5,3.5,2.3,5.3
			c-0.7,3.4-1.4,6.8-2.2,10.2C552.2,499,550.3,495.4,548.1,491.8L548.1,491.8z"/>
	</g>
	<g>
		<path fill="#F4D3A3" d="M840.7,483.1c4.2-0.2,8.8-1.1,12.6,1.3c-6.4,1.7-13.2,1.6-19.4,4.1c6.8,0.9,13.8,0.6,20.3,2.9
			c-4.7,1-9.5,1.4-14.3,2.1c1.7,1.1,3.4,2.1,5.2,3.1c-11.3,1.6-22.7,2.7-34.1,4.1c-24.3,2.2-48.5,4.9-72.9,5.3
			c-10.1,0.2-20.2,1.4-30.2,2.8c3.1-2.1,6.5-4,10.2-4.7c16.4-3.8,33.2-4.1,49.9-4.1c19.4-1,38.7-3.3,58-4.7c2.1-0.3,4.7,0,6.2-1.7
			c-11.4-1.2-22.8,0.9-34.3,0.3c5.7-1.3,11.4-2,17.2-2.7c2.6-0.3,5.1-0.7,7.7-1.1c-0.6-0.8-1.3-1.5-1.9-2.2c7-0.6,13.9-2.2,20.9-3
			c-0.2-0.3-0.6-0.8-0.8-1.1L840.7,483.1L840.7,483.1z"/>
	</g>
	<g>
		<path fill="#E7973A" d="M594.2,483.7c1.9,1.7,4,3.5,4.9,5.9c1.9,5.2,5.3,9.9,5.8,15.5c0.1,6-1.6,11.9-1.6,17.9
			c-0.3,4.4,0.4,8.9,0.1,13.3c-0.8,1.7-2.9,0.6-4.3,0.6c-0.8,1.1-1.7,2.2-2.5,3.3c-2.1-4.1-4.2-8.3-5-12.9
			c-0.7-4.3-2.3-8.2-4.7-11.9c0-0.6-0.1-1.8-0.1-2.4C588.2,503,590.8,493.2,594.2,483.7L594.2,483.7z"/>
	</g>
	<g>
		<path fill="#F5D4A4" d="M750,490c21.2-2.2,42.6-4,63.8-6.6c3.2,0.4,6.3,1.2,9.4,1.8c-11.6,1.7-23.3,2.7-35,4
			c-12.4,1.3-24.8,3-37.2,3.7c-34.8,3-69.4,7.5-104.2,9.5c1.2-1.7,2.4-3.5,4-4.8c6-4.9,12.9-8.6,20.4-10.7c-4.4,3.2-9,6.4-12.3,10.8
			c5.4,0.3,10.8-0.2,16.1-0.7C700,495,725,492.4,750,490L750,490z"/>
	</g>
	<g>
		<path fill="#DCB089" d="M570.5,496.5c0.7-3.8,1.5-7.5,3-11c1,1.3,2.1,2.7,3.1,4.1c0.7-0.7,1.5-1.4,2.2-2.1
			c0.1,0.3,0.4,0.9,0.5,1.2c-0.4,2-0.9,4-1.5,5.9c-1,3.2-2.1,6.3-2.9,9.5C573.8,501.4,572.2,498.9,570.5,496.5L570.5,496.5z"/>
	</g>
	<g>
		<path fill="#FAEAD3" d="M810.8,489.6c3.2-1.4,6.8-1.6,10.2-1.9c0.6,0.7,1.2,1.5,1.9,2.2c-2.6,0.4-5.1,0.8-7.7,1.1
			C813.7,490.7,812.2,490.2,810.8,489.6L810.8,489.6z"/>
	</g>
	<g>
		<path fill="#5B7FB9" d="M579.4,488.7l0.3,0.6c1.8,3.7,3.5,7.5,5.6,11.1c-0.6,2.2-1,4.5-1.4,6.8c-1.9-4.2-3.9-8.4-6-12.6
			C578.5,492.7,579,490.7,579.4,488.7L579.4,488.7z"/>
	</g>
	<g>
		<path fill="#B1887C" d="M530.1,490.5c2.8,1.5,3,4.7,3.5,7.5c0.2-0.3,0.7-1,0.9-1.4c0.3,1.2,0.6,2.5,0.9,3.7
			c-0.8,7.3-1.4,14.7-2.5,22c-2.1-4-3.6-8.2-6.1-11.9C527.4,503.6,528.5,497,530.1,490.5L530.1,490.5z"/>
	</g>
	<g>
		<path fill="#C19783" d="M548.1,491.8c2.2,3.5,4.1,7.2,6.1,10.8c-2.2,11.8-2.8,23.8-3.1,35.7c-3.4-4.6-4.6-10.3-6.9-15.5
			C544.5,512.4,545.7,502,548.1,491.8L548.1,491.8z"/>
	</g>
	<g>
		<path fill="#A1B6D7" d="M577.9,494.6c2.1,4.1,4.1,8.3,6,12.6c0,0.4,0.1,1.2,0.2,1.5c-1.1,6-1.7,12-2.1,18
			c-1,8.4,0.3,16.8,1.6,25.2c-0.8,0.4-1.7,0.8-2.5,1.2c0.4-8.7,0.2-17.5,0.3-26.2c0.1-4.3-1.2-8.5-3-12.4c-0.7-1.9-1.5-3.7-2.2-5.6
			c-0.4-1.1-0.8-2.1-1.1-3.2c0-0.4-0.1-1.2-0.1-1.7C575.8,500.9,577,497.8,577.9,494.6L577.9,494.6z"/>
	</g>
	<g>
		<path fill="#C8977A" d="M566.3,543.4c-1.3-15.7,0.1-31.6,4.2-46.9c1.7,2.4,3.2,4.9,4.5,7.6c0,0.4,0.1,1.2,0.1,1.7
			c-2.9,14.3-2.4,29-0.7,43.3c0.1,2.2,0.3,4.5,0.8,6.7c0.5,0.2,1.5,0.6,2,0.8c-1.1,0.2-2.2,0.4-3.3,0.7c-0.7-1.4-1.3-2.9-1.9-4.3
			C571.1,549.4,570.8,544.1,566.3,543.4L566.3,543.4z"/>
	</g>
	<g>
		<path fill="#F5BB65" d="M844.8,503.7c6.7-1.1,13.4-1.4,20.1-1.8c4.8-0.1,10-0.5,14.3,1.9c-7.5,3-14.5,7-22.3,9.1
			c-1.7-0.8-3.4-1.5-5.1-2.3c4.4-1.2,9.7-0.1,13.5-3.1c-17.7-2-35.3,1.4-52.6,4.3c-3.6,0.5-6.4,3.3-10,3.8
			c-12.5,2.1-25.1,4.2-37.8,4.1c4.7-1.5,9.6-2.2,14.3-3.4c-11.6,0.2-23.2,1.5-34.8,2.2c-27.1,1.9-54.1,4.1-81,7.4
			c0.1-0.5,0.4-1.5,0.5-2c1.3-0.3,2.6-0.6,4-0.9c5.4-0.7,10.3-3.2,15.5-5c2.3,2.5,5.8,1.4,8.8,1.2c17.9-2.2,36-3.3,54-5
			c21.1-1.9,42.3-2.3,63.3-4.9C821.2,507.1,833,505.5,844.8,503.7L844.8,503.7z"/>
	</g>
	<g>
		<path fill="#EE9B35" d="M604.9,505.1c0.6-0.2,1.8-0.8,2.4-1c2.7,4.6,4.5,9.6,5.7,14.7c1.3,5.8,1.5,11.9,3.3,17.6
			c0.9,3.1,3.7,5.1,5.3,7.9c0.7,3.9-0.2,7.9-0.2,11.8c0.1,2.3,0.7,4.6,2.1,6.5c1.9,2.2,2.9,4.9,2.9,7.8c0.2,7.3,2.2,14.3,2.7,21.5
			c0.3,2-0.6,3.8-1.6,5.5c-4.3-5.7-8.4-11.7-12-17.9c-1.1-1.7-2.1-3.5-3.6-4.9c-1.1,0-2.1,0.2-3.1,0.4c-3.5-5-3-12-7.6-16.4
			c-0.8-0.7-1.8-1.5-2.9-1.2c-3.1,0.6-6.1,1.9-9.2,2.5c-1.3-0.1-2.6-0.1-3.9-0.2c-0.5-2.7-1-5.3-1.4-8c1.2-0.5,2.5-1,3.8-1.5
			c3.4-1.1,7.4-1.3,10-4c0.3-2.1-0.3-4.2-0.8-6.1c0.8-1.1,1.6-2.2,2.5-3.3c1.4,0,3.5,1.1,4.3-0.6c0.3-4.4-0.4-8.8-0.1-13.3
			C603.4,517.1,605.1,511.2,604.9,505.1L604.9,505.1z"/>
	</g>
	<g>
		<path fill="#5A7EB9" d="M575.1,505.8c0.4,1,0.8,2.1,1.1,3.2c0.1,3.5-0.3,7-0.7,10.5c-1.4,9.9-0.4,19.8-1.1,29.7
			C572.7,534.8,572.3,520,575.1,505.8L575.1,505.8z"/>
	</g>
	<g>
		<path fill="#C09581" d="M576.3,508.9c0.7,1.9,1.5,3.7,2.2,5.6c-2.6,3.2-1.8,7.6-1.9,11.5c0,9.6,0,19.2,1.7,28.7
			c1-0.5,1.9-1.1,2.9-1.6c0.8-0.4,1.6-0.9,2.5-1.2c0.4,2.7,0.9,5.3,1.4,8c-0.6,0.2-1.8,0.6-2.4,0.8c-0.7,0.2-2,0.5-2.7,0.6
			c3,13.6,8.5,26.7,16.7,38c0.1,0.4,0.2,1.1,0.2,1.5c-0.8,2.5-1,5.1-0.7,7.7c-10.9-13.6-18.7-29.9-21.2-47.2c1.3-0.4,2.7-0.8,4-1.1
			c0-1.2,0.1-2.5,0.1-3.7c-0.5,0-1.4,0.1-1.9,0.1c-0.5-0.2-1.5-0.6-2-0.8c-0.4-2.2-0.7-4.4-0.8-6.7c0.8-9.9-0.3-19.9,1.1-29.7
			C576,516,576.4,512.5,576.3,508.9L576.3,508.9z"/>
	</g>
	<g>
		<path fill="#DAB08C" d="M584.1,508.7c0.9,1.5,1.9,2.9,2.8,4.4c0,0.6,0.1,1.8,0.1,2.4c-0.9,6.2-1.2,12.4-1.2,18.6
			c-1.1-2.6-2.4-5-3.7-7.4C582.4,520.7,583,514.7,584.1,508.7L584.1,508.7z"/>
	</g>
	<g>
		<path fill="#D3AE8F" d="M526.2,528.7c-0.7-6.1-0.5-12.3,0.5-18.3c2.5,3.7,4.1,8,6.1,11.9c0.3,8,1,16,1,24.1
			C531.2,540.5,529.6,534.2,526.2,528.7L526.2,528.7z"/>
	</g>
	<g>
		<path fill="#FAE9D2" d="M821.9,512.4c4.7-0.9,9.4-1.5,14.1-1.7c2.4,0,5-0.3,7.2,1c-5,0.7-10.1,0.8-15.1,1.2
			C826,512.9,823.8,513.4,821.9,512.4L821.9,512.4z"/>
	</g>
	<g>
		<path fill="#F7D9AD" d="M672.9,519.1c6.3-1.9,12.7-3.8,19.2-5c-2.9,1.3-5.8,2.8-8.8,4c-5.1,1.8-10,4.3-15.5,5
			C669.2,521.3,670.7,519.6,672.9,519.1L672.9,519.1z"/>
	</g>
	<g>
		<path fill="#5172B1" d="M576.6,526c0.1-3.9-0.7-8.2,1.9-11.5c1.8,3.9,3.1,8.1,3,12.4c0,8.7,0.1,17.5-0.3,26.2c-1,0.5-2,1-2.9,1.6
			C576.5,545.3,576.5,535.6,576.6,526L576.6,526z"/>
	</g>
	<g>
		<path fill="#F5BA63" d="M820.9,517.7c9.5-0.4,18.8-2.1,28.3-2.5c-4.9,2.1-10.3,2.9-15.3,4.5c11.8,1,23.4-1.9,35.2-1.9
			c1.9,0,3.8,0.5,5.6,1.1c-2.4,2.9-6.2,2.9-9.6,3.5c-3,0.3-4.2,4.1-7.2,4.4c-3,0.5-6,0.9-8.6,2.5c-3.4,2.1-7.5,2.3-11.4,2.5
			c-9.7,0.3-19.4,0.5-29,1.1c4.5-2,9.2-3.7,13.2-6.7c-18.2,0.7-36.3,3.2-54.4,5.5c-24.6,3.5-49.2,7.5-73.7,11.4
			c-15.2,2.4-30.5,4.1-45.8,6.2c-8.1,1-16.1,2.5-24.3,2.8c0.2-1.2,0.3-2.4,0.5-3.7c3.9-0.5,7.8-0.9,11.6-1.4
			c26.4-3.8,52.9-6.9,79.3-10.8c17.8-3,35.7-5.4,53.6-8.4c12.7-1.9,25.5-3,38.1-5.6c-2-0.1-4.1-0.2-6.1-0.2
			c-24.4,0.7-48.6,4.7-72.8,8.3c-33.5,3.6-67.2,5.4-100.6,10.5c-2.3,0.3-4.9,1.1-7-0.5c5.3-1.5,10.8-2.4,16.3-3.3
			c20.9-3.2,41.9-5.2,62.9-7c19.3-1.8,38.7-2.9,57.8-6.4C778.6,520.2,799.8,518.5,820.9,517.7L820.9,517.7z"/>
	</g>
	<g>
		<path fill="#EFA649" d="M587,515.5c2.4,3.6,4,7.6,4.7,11.9c0.8,4.6,2.9,8.8,5,12.9c0.5,2,1.1,4.1,0.8,6.1c-2.6,2.7-6.6,2.9-10,4
			c-1.3-5.3-1.6-10.8-1.6-16.2C585.7,528,586,521.7,587,515.5L587,515.5z"/>
	</g>
	<g>
		<path fill="#B18676" d="M544.3,522.8c2.2,5.2,3.4,10.9,6.9,15.5c1.1,6,1.1,12.2,2.2,18.3c1.8,9.6,3.9,19.2,7.6,28.3
			c2.1,6.3,5.6,12,7.9,18.2c-10.6-15.2-16.1-33.2-19.4-51.2c0.4,5.2,1,10.4,2.2,15.4c2.7,10.1,5.6,20.2,10.4,29.6
			c1.9,4.1,5.1,7.7,5.3,12.4C550.8,584,543,553,544.3,522.8L544.3,522.8z"/>
	</g>
	<g>
		<path fill="#F7DEBA" d="M638.7,525.7c6.4-1.1,12.9-2.6,19.5-2.5c-4.3,1.9-9,3-13.6,4.1c-7,0.9-13.9,2.8-20.9,3
			c-0.5-0.2-1.4-0.7-1.9-0.9C627.3,527.4,633.1,526.8,638.7,525.7L638.7,525.7z"/>
	</g>
	<g>
		<path fill="#F5D4A5" d="M767.7,531.8c18.1-2.3,36.2-4.8,54.4-5.5c-4,3-8.7,4.7-13.2,6.7c-16.5,4.8-33.9,4-50.7,7.4
			c-11.6,1.5-23.1,3.4-34.7,5.3c-21.4,2.9-43,4.9-64.4,8.7c-6.8,1.2-13.4,3.1-20.3,3.6c5.1-2.9,10.9-4.1,16.3-6.5
			c-10,0.9-20,2.3-30,3.8c-0.1,0.7-0.3,2.2-0.4,2.9c-0.4-1.7-0.7-3.5-0.8-5.2l0.1-0.9c8.2-0.3,16.2-1.8,24.3-2.8
			c15.2-2.1,30.6-3.8,45.8-6.2C718.6,539.2,743.1,535.2,767.7,531.8L767.7,531.8z"/>
	</g>
	<g>
		<path fill="#B88C7A" d="M582,526.7c1.4,2.4,2.7,4.9,3.7,7.4c0.1,5.4,0.4,10.9,1.6,16.2c-1.3,0.5-2.5,1-3.8,1.5
			C582.4,543.6,581,535.2,582,526.7L582,526.7z"/>
	</g>
	<g>
		<path fill="#FAEBD5" d="M623.7,530.2c7.1-0.3,13.9-2.1,20.9-3c2.4,0.3,4.9,0.7,7.4,0.9c-1,0.6-2.1,1.2-3,1.8
			c5.4-0.3,10.8-1.2,16.2-0.8c-1.4,0.4-2.7,0.9-4.1,1.1c-11.4,1.5-22.7,3.4-33.8,6.3c-2.3,0.6-4.6,0.8-6.9,0.9
			c6.3-2.3,12.6-4.6,18.7-7.3c-5,0.6-9.9,1.5-14.9,2.2C624,531.7,623.8,530.8,623.7,530.2L623.7,530.2z"/>
	</g>
	<g>
		<path fill="#B2887A" d="M526.2,528.7c3.4,5.5,5,11.8,7.7,17.7c1.7,12.9,4.5,25.7,8.8,38c9.3,25.7,26,48.5,46.5,66.4
			c-1.1,2.3-2.2,4.6-3.4,6.9c-30.1-24.8-50.9-60.5-57.6-98.9C525.9,548.8,525.4,538.7,526.2,528.7L526.2,528.7z"/>
	</g>
	<g>
		<path fill="#F5BB65" d="M824,540.9c18.1-3.8,36.9-3.2,54.8-8.2c0.8,0.1,2.4,0.2,3.2,0.3c-6.3,3.1-13.2,4.9-19.9,7.2
			c-41.5,3.2-82.4,11.6-123.4,18.6c-27.8,5.1-55.6,9.7-83.5,14c0.2-0.4,0.5-1.3,0.7-1.8c2.7-0.8,5.4-1.5,8.2-1.9
			c3.3-0.5,6.7-0.8,10-1.3c5.2-1.3,11.9-0.6,15.1-5.7c-7.2-1.3-14.5-0.8-21.4,1.4c-12.2,3-24.7,4.4-37.1,5.9
			c-0.6,1.8-1.1,3.7-1.8,5.5c-1.1-3.8-0.3-7.9-1.8-11.7c0.4-0.2,1.3-0.6,1.7-0.8c0.8-0.4,1.7-0.9,2.6-1.3c1.4,1.1,2.7,2.6,4.7,2.6
			c11.9,1,23.7-1.6,35.4-3.5c8.3-1.4,16.4-3.6,24.7-5.2c5.4-1,10.8-2.6,16.3-2c-2.6,2.4-6.3,2.5-9.4,4.1c-2.7,1.4-4.9,3.5-7.1,5.6
			c10.4-1,20.4-4.1,30.8-5.2C759.2,551.9,791.5,546,824,540.9L824,540.9z"/>
	</g>
	<g>
		<path fill="#F5D3A1" d="M738.8,558.8c41-7,81.8-15.4,123.4-18.6c-16.4,5.5-34,5.5-50.9,8.2c-50.1,7.9-99.8,18.1-150,26
			c-6.8,1.1-13.5,2.3-20.4,2.6c4.9-2.3,9.9-4.3,15.1-5.8c-0.2,0.4-0.5,1.3-0.7,1.8C683.1,568.4,711,563.8,738.8,558.8L738.8,558.8z"
			/>
	</g>
	<g>
		<path fill="#B08577" d="M566.3,543.4c4.5,0.7,4.8,6,5.7,9.6c0.2,3.2,0.3,6.6,1.3,9.7c2.9,9.6,5,19.5,9.6,28.4
			c3.6,7.6,8.9,14.1,13.3,21.2c-0.3,1.3-0.7,2.7-1.1,4.1C578,595.9,567.9,569.9,566.3,543.4L566.3,543.4z"/>
	</g>
	<g>
		<path fill="#FFFEFE" d="M625.1,555.3c10-1.5,20-2.9,30-3.8c-5.4,2.3-11.2,3.6-16.3,6.5c-2.5,1-5,2-7.4,3.2
			c-0.9,0.4-1.7,0.8-2.6,1.3c-2.3-0.2-4-1.9-4.2-4.2C624.8,557.5,625,556,625.1,555.3L625.1,555.3z"/>
	</g>
	<g>
		<path fill="#E09953" d="M572.1,552.9c0.6,1.4,1.2,2.9,1.9,4.3c1.1-0.2,2.2-0.5,3.3-0.7c0.5,0,1.4-0.1,1.9-0.1
			c-0.1,1.2-0.1,2.5-0.1,3.7c-1.3,0.4-2.7,0.7-4,1.1c2.5,17.2,10.4,33.6,21.2,47.2c0.1,1.2,0.1,2.5,0,3.8
			c-4.4-7.1-9.7-13.6-13.3-21.2c-4.6-8.9-6.8-18.8-9.6-28.4C572.4,559.5,572.3,556.2,572.1,552.9L572.1,552.9z"/>
	</g>
	<g>
		<path fill="#DDB48D" d="M621.3,556.2c0.9-1.1,1.7-2.1,2.5-3.2c0.2,1.7,0.4,3.5,0.8,5.2c0.2,2.3,1.8,4,4.2,4.2
			c-0.4,0.2-1.3,0.6-1.7,0.8c-1.2-0.2-2.5-0.4-3.7-0.5C622,560.8,621.4,558.5,621.3,556.2L621.3,556.2z"/>
	</g>
	<g>
		<path fill="#EEA648" d="M588.9,560.1c3.1-0.6,6.1-1.9,9.2-2.5c1.1-0.3,2.1,0.5,2.9,1.2c0.9,4.5,2.1,8.9,2.1,13.5
			c-0.4,8.4,2.6,16.5,1.7,24.9c-3-4.8-5.8-9.7-8.7-14.5C593.3,575.3,590.5,567.8,588.9,560.1L588.9,560.1z"/>
	</g>
	<g>
		<path fill="#E5963C" d="M601.1,558.8c4.5,4.4,4.1,11.3,7.6,16.4c1-0.2,2.1-0.4,3.1-0.4c1.5,1.4,2.5,3.2,3.6,4.9
			c3.6,6.2,7.7,12.1,12,17.9c-0.3,1.9-0.6,3.9-0.7,5.8c-6.3-5.1-10.3-12.2-15.7-18.3c3.5,8.2,10.2,14.3,15.8,21
			c0.2,0.6,0.6,1.6,0.8,2.2c0.6,2,1.5,4.2,1.3,6.4c-0.6,2-1.9,3.8-2.8,5.7c-7.7-6.7-14.9-14.1-20.8-22.5l-0.4-0.8
			c0.9-8.4-2.1-16.5-1.7-24.9C603.1,567.7,602,563.2,601.1,558.8L601.1,558.8z"/>
	</g>
	<g>
		<path fill="#A4858F" d="M582.7,560.7c0.6-0.2,1.8-0.6,2.4-0.8c1.6,4.3,2.8,8.7,4.2,13c1.7,5.3,5,10,5.9,15.6
			c-3.7-3.3-4.6-8.4-7-12.5c-0.1,0.5-0.3,1.5-0.3,1.9C585.4,572.5,583.8,566.7,582.7,560.7L582.7,560.7z"/>
	</g>
	<g>
		<path fill="#AF8678" d="M585.1,559.9c1.3,0.1,2.6,0.1,3.9,0.2c1.6,7.8,4.3,15.2,7.2,22.6c-0.1,3.9-0.5,7.7-0.4,11.6
			c-3.5-5-5.9-10.6-7.9-16.2c0.1-0.5,0.2-1.5,0.3-1.9c2.4,4.1,3.3,9.2,7,12.5c-0.9-5.6-4.2-10.3-5.9-15.6
			C587.9,568.6,586.6,564.2,585.1,559.9L585.1,559.9z"/>
	</g>
	<g>
		<path fill="#5C7FB9" d="M580,561.3c0.7-0.1,2-0.4,2.7-0.6c1.1,5.9,2.7,11.7,5.1,17.3c2,5.7,4.5,11.3,7.9,16.2
			c0.3,1.7,0.6,3.4,0.9,5.1C588.5,588,583,574.9,580,561.3L580,561.3z"/>
	</g>
	<g>
		<path fill="#F5CC8E" d="M667.8,563.5c6.9-2.2,14.3-2.7,21.4-1.4c-3.2,5.1-10,4.4-15.1,5.7c0.1-0.5,0.2-1.4,0.2-1.8
			C672.2,565.1,670.1,564.2,667.8,563.5L667.8,563.5z"/>
	</g>
	<g>
		<path fill="#F3AD49" d="M623.4,562.7c1.2,0.2,2.5,0.4,3.7,0.5c1.6,3.7,0.7,7.9,1.8,11.7c1.4,2,2.8,3.9,4.1,5.9
			c3.1,6.2,8.2,11.2,13.5,15.7c11.3,9.6,24.1,17.6,37.8,23.3c39.5,17.1,82.4,24.6,125,28.9c14.5,1.6,29.2,2.6,43.8,3.4
			c9-0.4,18,1.5,27,1.1c5.5-0.2,11.1-0.2,16.6,0.4c7.4,0.8,14.9,0.4,22.4,0.5c8.1,0,16.2,0.2,24.3-0.6c11.4-1.1,22.8,0.5,34.2-0.9
			c5.5-0.7,11.1-0.4,16.6-0.5c12-0.9,24-1,36-2.2c24.8-2.2,49.7-4.1,74.4-7.3c10.1-1.3,20.2-2.2,30.3-3.7c8.7-1.2,17.4-3,26.2-3.6
			c-6.2,6.7-12.3,14.5-21.3,17.6c-9.2,3.4-19.1,5.1-27.4,10.5c-12,7-20.3,19-32.8,25.2c-9.5,5.3-20.4,6.6-30.8,9.2
			c-24.2,5.4-48.4,10.7-72.6,16.4c-3.3,0.7-6.6,1.5-9.7,2.9c0.4,2.5,2,5.8-0.5,7.8c-4.2,3.8-9.8,5.3-15.1,7.1
			c-19.3,5.2-39,8.7-58.9,11.2c-6.1,0.7-12,1.9-18.1,2.8c-0.4,0-1.3,0-1.7,0c-32.1-4-64.6-4.2-96.7-9.1c-15.6-1.7-31-4.8-46.5-7.5
			c-34.9-7.8-69.5-17.8-101.8-33.2c-4.1-1.8-7.9-4.1-11.8-6.2c-2.9-1.9-6.4-0.5-9.7-0.7c2.1-2.1,4.5-3.8,6.4-6.1
			c0.9-1.9,0.3-4.1,0.3-6c0.8,0.6,1.5,1.2,2.3,1.8l0.5,0.4c3.7,5,9.8,6.9,14.9,9.9c39.2,19.4,81.7,31.8,124.7,39.3
			c7.7,1,15.5,3.2,23.3,1.7c7.2-1.4,14.3,1,21.4,1.7c7.3,0.7,14.7,2.6,22,0.8c4.5-1.1,9-1.7,13.6-1.2c8,0.8,15.9,1.2,23.9,1.9
			c4.2,0.4,8.5,0.1,12.2-1.9c-6.2-1.8-12.8-1.7-19.2-2.2c-17.9-1.1-35.7-3.7-53.6-5.5c-6.6-0.6-13-2.5-19.6-2.4
			c5.7,3.1,12.3,3.4,18.3,5.8c-15.4-0.7-30.4-4.5-45.7-6.2c0.4,0.8,0.8,1.7,1.2,2.6c-18.5-3.3-36.8-7.7-54.9-12.9
			c-6.6-2.2-13.6-3.5-19.7-6.9c8.8-0.7,17.5,0.9,26.2,1.5c11.2,0.7,22.1,4,33.1,6c8.6,1.5,17.1,3.5,25.8,4.4c12,1.1,24,2.9,36.1,3.5
			c8.9,1.2,17.9-0.2,26.9,0.6c8.3,0.7,16.7,1.1,25,0.6c17-2.2,34.2,0.3,51.2-1.3c-2.6-1.1-5.3-1.8-8-2c-30.8-2.7-61.6-4.4-92.2-8.5
			c-38.3-4.7-76.7-11.1-113.3-23.7c-13.4-4.2-26.3-9.9-39-16c-8.5-4.2-16.2-9.7-24.5-14.3c-1.1,1.8-2.2,3.5-3.4,5.3
			c-0.6-0.1-1.8-0.2-2.4-0.3c0.7-2.3,1.2-4.6,2-6.8c0.8-0.9,1.6-1.8,2.4-2.6c-0.1-2.3-0.1-4.5-0.3-6.8c2.2,2.7,3.7,6,6.6,8
			c13.4,9,28,16.1,43,22c33.4,13.8,69.1,21,104.8,26.2c5.4,0.6,10.8-0.9,16.2-0.3c7.6,0.8,15.2,1.7,22.8,2.4
			c3.2,0.5,6.2-0.8,9.3-1.6c10.3-1.9,20.7,1.6,31,0.3c-5.2-2-10.9-0.9-16.3-2c-24.4-3.5-49.1-5.7-73.2-11.3c2.3-2.1,5.7-1.1,8.5-0.8
			c13.5,2.4,27.1,3.3,40.7,4.7c14.6,1.5,29.4,2.4,44.1,2.8c14.6-1.5,29.3-0.7,44-1.1c-1-0.6-1.9-1.2-2.8-1.8
			c14.2-1.3,28.6-0.9,42.8-0.9c2.9-0.1,6.1,0.2,8.4-2c-8.2-1.2-16.5,0-24.8-0.9c-10.6-1.2-21.2,0.1-31.8-1.1
			c-9.4-1-18.9,0.1-28.3-0.9c-7.9-0.9-15.9-0.2-23.8-1c-13.7-1.1-27.3-2.1-40.8-4.2c-35.6-4.2-71-11.2-104.8-23.2
			c-23.9-8.8-47.4-19.7-67-36.2c-0.9,1.1-1.7,2.2-2.6,3.4c-1.1-0.8-2.3-1.5-3.4-2.1l0.2-0.7c0.9-1.9,2.2-3.7,2.8-5.7
			c0.2-2.2-0.7-4.3-1.3-6.4c0.5,0.1,1.4,0.2,1.9,0.2c4.1,4.9,9.3,8.7,14.4,12.5c15.4,11.3,32.9,19.3,50.6,26.3
			c33.4,12.7,68.7,19.9,104,24.2c30.3,3.9,60.9,5.5,91.3,8.5c14.4,0.4,28.6,2.5,43,2.3c6.8-0.1,13.8,0.3,20.3-2.2
			c2.7-0.4,5.3-0.8,8-1.1c11.4,0.8,22.9,0.4,34.3-1c12.5,0.3,25-1.5,37.2-4.3c5.2-1.3,10.9-2,15.4-5.3c-15.1-0.6-30.2,0-45.2-0.1
			c-13.6,1.1-27.3,0.7-41,0.8c-6.6-0.1-13.3,0.2-19.9-0.3c-14-1.3-28.1,0.2-42.1-1.4c-33.1-0.8-66.1-3.6-99-7.2
			c-39.7-4.9-79.7-11.9-116.9-27.3c-15.9-6.4-31.2-14.6-44.5-25.5c-2.8-2.3-5.4-5.1-8.8-6.4c-0.4,1.2-0.8,2.3-1.2,3.5
			c-1,0-2-0.1-2.9-0.1v-1c0.1-2,0.4-3.9,0.7-5.8c1-1.6,1.9-3.5,1.6-5.5c-0.5-7.2-2.5-14.3-2.7-21.5
			C626.4,567.6,625.3,564.9,623.4,562.7L623.4,562.7z"/>
	</g>
	<g>
		<path fill="#F4D4A4" d="M630.7,569.4c12.4-1.5,24.9-2.8,37.1-5.9c2.2,0.7,4.4,1.6,6.5,2.5c-0.1,0.5-0.2,1.4-0.2,1.8
			c-3.3,0.5-6.7,0.8-10,1.3c0.1-0.6,0.4-1.7,0.5-2.2c-11,1.3-21.8,3.8-32.7,5.4c2.6,5.4,6.6,9.9,10.5,14.3
			c12.5,12.9,28.2,22.3,44.7,29.2c34.2,14.5,71,22,107.8,26.3c31.5,3.8,63.3,5.2,95,6.5c16.7-0.1,33.4,0.5,50,0.1
			c11-0.3,22,0.2,32.9-0.6c10.7-0.9,21.4-0.7,32.1-1.4c61.9-3.3,123.6-10.4,184.7-21c9-1.5,18-3.6,27.1-4.7
			c-3.4,4.3-6.1,9.1-9.5,13.5c-5.3,6.4-14.1,7.2-20.9,11.1c-7.3,3.7-12.8,9.9-17.7,16.3c-5.2,6.8-11.1,13.5-19.2,16.7
			c-9.2,3.8-19,5.8-28.4,8.6c-21.7,6.2-43.4,12.1-64.9,19c0.9,2.7,3.4,6.2,0.6,8.7c-4.8,4.9-11.5,7-17.7,9.3
			C1019.3,731,998.6,735,978,739c-8.7,1.5-17.5,2.8-26.1,4.9c-14.8,3.1-30,3.4-45.1,3.1c10.8-2.4,22-3.3,32.9-5.2
			c20-3.5,40.2-6.9,59.5-13.5c4.8-1.8,10-3.5,13.6-7.4c2.2-2.2,0.1-5.2-0.4-7.7c9.2-3.1,18.6-5.3,28-7.8c21.4-5.7,42.9-11,64.4-16.6
			c9.1-2.4,17.8-6.8,24.5-13.5c7.5-7.1,13.9-15.9,23.4-20.6c6.1-3.5,12.9-5,19.4-7.6c8.8-3.5,13.4-12.4,19.9-18.8
			c-70.8,12-142.2,19.9-213.9,22.7c-12.7,0-25.3,1.3-38,0.9c-53.2,0.6-106.6-1.1-159.4-8.4c-34-4.8-67.8-12.8-99.2-26.8
			c-14.4-6.8-28-15.5-39.4-26.6c-3-3.1-5.8-6.3-8.8-9.3c-1.3-2-2.8-3.9-4.1-5.9C629.6,573.1,630.2,571.2,630.7,569.4L630.7,569.4z"
			/>
	</g>
	<g>
		<path fill="#F5BA64" d="M633.1,580.8c3,3,5.9,6.2,8.8,9.3c11.5,11.1,25,19.8,39.4,26.6c31.4,14,65.2,22,99.2,26.8
			c52.8,7.3,106.2,9,159.4,8.4c12.7,0.4,25.3-1,38-0.9c71.7-2.8,143.2-10.7,213.9-22.7c-6.6,6.3-11.1,15.2-19.9,18.8
			c-6.4,2.6-13.3,4.1-19.4,7.6c-9.5,4.8-15.9,13.5-23.4,20.6c-6.7,6.8-15.4,11.1-24.5,13.5c-21.5,5.6-43,10.9-64.4,16.6
			c-9.4,2.5-18.8,4.7-28,7.8c0.5,2.5,2.6,5.5,0.4,7.7c-3.6,3.9-8.8,5.6-13.6,7.4c-19.3,6.6-39.5,10-59.5,13.5
			c-10.9,2-22,2.8-32.9,5.2c-0.4,0-1.3,0.1-1.7,0.2c-10.5,0.2-20.9-0.9-31.3-1.4c6-0.8,12-2.1,18.1-2.8c19.8-2.5,39.6-5.9,58.9-11.2
			c5.2-1.7,10.9-3.2,15.1-7.1c2.4-2,0.9-5.3,0.5-7.8c3.1-1.5,6.3-2.3,9.7-2.9c24.2-5.6,48.4-11,72.6-16.4
			c10.4-2.5,21.3-3.8,30.8-9.2c12.5-6.3,20.8-18.2,32.8-25.2c8.3-5.4,18.2-7.1,27.4-10.5c9-3,15.1-10.8,21.3-17.6
			c-8.8,0.6-17.5,2.4-26.2,3.6c-10.1,1.5-20.2,2.4-30.3,3.7c-24.7,3.2-49.6,5.1-74.4,7.3c-12,1.1-24,1.2-36,2.2
			c-5.5,0.1-11.1-0.2-16.6,0.5c-11.3,1.4-22.8-0.2-34.2,0.9c-8.1,0.8-16.2,0.5-24.3,0.6c-7.5-0.1-15,0.3-22.4-0.5
			c-5.5-0.6-11-0.5-16.6-0.4c-9,0.4-18-1.5-27-1.1c-14.6-0.8-29.2-1.8-43.8-3.4c-42.6-4.3-85.4-11.8-125-28.9
			c-13.7-5.7-26.5-13.7-37.8-23.3C641.2,592.1,636.2,587,633.1,580.8L633.1,580.8z"/>
	</g>
	<g>
		<path fill="#5B7EB9" d="M513.2,582.8c2.1,5.6,4.4,11.2,6.4,16.8c-2.2,3.8-1,8.3-1.3,12.5c-0.4,6.8-1.1,13.6-3,20.1
			c-0.4-8.4-0.5-16.8-0.4-25.2C514.8,598.9,513.4,590.9,513.2,582.8L513.2,582.8z"/>
	</g>
	<g>
		<path fill="#D2B296" d="M596.2,582.6c2.9,4.8,5.7,9.7,8.7,14.5l0.4,0.8c0.1,3.9-0.6,7.7-1,11.6c-2.8-2.6-5.3-5.5-7.4-8.6
			c-0.1-0.4-0.2-1.1-0.2-1.5c-0.3-1.7-0.6-3.4-0.9-5.1C595.7,590.4,596,586.5,596.2,582.6L596.2,582.6z"/>
	</g>
	<g>
		<path fill="#AE867D" d="M611,585.1c5.3,6,9.3,13.2,15.7,18.3v1c0,0.4,0.1,1.3,0.1,1.7C621.2,599.4,614.6,593.2,611,585.1
			L611,585.1z"/>
	</g>
	<g>
		<path fill="#AE867D" d="M605.3,597.9c5.9,8.3,13.1,15.7,20.8,22.5l-0.2,0.7c-0.6,3.5-1.1,7-1.8,10.5c-7.2-5.2-13.4-11.7-19.7-17.9
			c-0.1-1.4-0.1-2.8-0.1-4.2C604.7,605.6,605.4,601.8,605.3,597.9L605.3,597.9z"/>
	</g>
	<g>
		<path fill="#4563A8" d="M518.2,612c0.3-4.2-0.8-8.7,1.3-12.5c4.9,10.7,10.4,21.2,17.2,30.8c9.1,13.3,20.4,25,32.4,35.8
			c-4.7,9.8-10.9,18.9-18,27.1c-3.8,4.5-8.5,8.2-12,12.9c5.9-3.1,10.5-8.1,15.1-12.9c6.9-7.5,12.4-16.1,18-24.5
			c1.4,1.1,2.8,2.3,4.3,3.4c-3.3,7.7-8.8,14.2-13.1,21.3c-3.6,5.2-5.3,11.6-10.1,15.9c-7.2,6.5-15.1,12.2-22.5,18.6
			c-1.9,1.6-1.5,4.7-3.8,6c-9.5,6.4-19.7,11.8-29.7,17.3c-1.9,1.1-3.7,2.4-5.4,3.7c6.4-1.3,12.2-4.2,18.1-6.9
			c17.3-8.2,33.5-18.6,48.1-30.9c11.8-10.5,22.1-22.6,30.2-36.1c4.6,3.1,9.1,6.2,13.8,9.2c-4.1,7.9-9.6,14.9-15.1,21.8
			c-6,6.7-11.6,13.7-18.6,19.4c-25.9,23.5-57.4,40-90,51.9c-19.3,7-39.1,12.7-59.2,16.9c-11.3,2.9-22.9,4.3-34.3,6.7
			c-3.9,0.8-7.9,1.1-11.9,1.1c5.3-4.1,10.9-7.7,16.1-11.8c6.2-4.9,13.2-8.8,20.7-11.2c8.9-2.8,17.7-7,24.3-13.8
			c5.1-5.5,8.1-12.5,12.3-18.7c3.3-4.9,7.3-9.4,12.1-12.8c13.9-10,29.8-17,42.8-28.2c7.9-6.5,15.2-13.9,20-23c1.1-2,1.4-4.2,1.7-6.4
			c-3.2,1.4-6.2,3.2-9.1,5c-2.1-2.2-4-4.8-6.7-6.4c-3.6-1.6-7.6-1.6-11.5-2.1c3.4-10.1,9.6-19.1,12.2-29.5c1.6-3.6,2.8-7.3,3.9-11
			l0.3-0.7c1-1.7,2.3-3.2,2.9-5.1C517.1,625.6,517.8,618.8,518.2,612L518.2,612z"/>
	</g>
	<g>
		<path fill="#DCAC80" d="M596.9,600.8c2.1,3.1,4.6,6,7.4,8.6c0,1.4,0,2.8,0.1,4.2c0,1,0.1,2,0.2,3c0.2,1.8,0.8,3.4,2,4.7
			c3.6,4.1,7.8,7.5,11.2,11.7c-4.9-3.5-8.5-8.3-13.4-11.9c-0.6,1-1.3,2.1-1.9,3.1c-2.7-2.5-5.2-5.1-7.4-8.1c0.4-1.4,0.8-2.7,1.1-4.1
			c0.1-1.3,0-2.5,0-3.8C595.9,605.9,596.1,603.3,596.9,600.8L596.9,600.8z"/>
	</g>
	<g>
		<path fill="#F5BA63" d="M630.8,601c3.4,1.3,6,4.1,8.8,6.4c13.3,10.9,28.6,19.1,44.5,25.5c37.2,15.4,77.1,22.4,116.9,27.3
			c32.9,3.6,65.9,6.4,99,7.2c14,1.6,28.1,0.1,42.1,1.4c6.6,0.5,13.3,0.2,19.9,0.3c13.7,0,27.3,0.3,41-0.8
			c15.1,0.1,30.2-0.5,45.2,0.1c-4.5,3.3-10.1,4-15.4,5.3c-12.2,2.8-24.7,4.6-37.2,4.3c3-0.9,5.8-2.2,8.6-3.6
			c-27.7-0.6-55.4,0.1-83.1-1.2c-34.2-0.9-68.4-3.3-102.5-6.8c-46.7-4.9-93.7-12.5-137.3-30.7c-3.8-1.4-8-1.7-11.7-3.4
			c-10.6-4.5-20.3-10.6-29.6-17.4c-3.4-2.3-6.1-6.1-10.4-6.4c-0.5-0.1-1.4-0.2-1.9-0.2c-0.2-0.5-0.6-1.6-0.8-2.2
			c0-0.4-0.1-1.3-0.1-1.7c1,0,1.9,0.1,2.9,0.1C630,603.3,630.4,602.2,630.8,601L630.8,601z"/>
	</g>
	<g>
		<path fill="#F5D4A3" d="M629.6,608.5c4.3,0.3,7.1,4.1,10.4,6.4c9.2,6.8,19,12.9,29.6,17.4c3.7,1.7,7.9,2,11.7,3.4
			c43.6,18.2,90.6,25.8,137.3,30.7c34.1,3.5,68.2,6,102.5,6.8c27.7,1.3,55.4,0.6,83.1,1.2c-2.8,1.4-5.6,2.7-8.6,3.6
			c-11.4,1.4-22.8,1.8-34.3,1c-5.7-1.1-11.6-0.8-17.4-0.9c-10.7-0.6-21.4-1.4-32.1-0.6c4.9,0.2,9.8,0.1,14.6,0.7
			c8.9,1,18-0.3,26.8,1.9c-6.5,2.5-13.5,2.1-20.3,2.2c-14.4,0.2-28.7-1.8-43-2.3c-30.4-2.9-61-4.6-91.3-8.5
			c-35.4-4.4-70.6-11.5-104-24.2c-17.7-7-35.2-15-50.6-26.3C638.9,617.2,633.7,613.5,629.6,608.5L629.6,608.5z"/>
	</g>
	<g>
		<path fill="#C59370" d="M574.7,611.8c1.5,1,2.9,2,4.1,3.4c5.1,5.9,10.2,11.8,15.5,17.5c1.2,1.3,2,2.9,2.7,4.5
			c-4.4-2.2-7-6.5-10.4-9.8C582.1,622.6,577.3,617.9,574.7,611.8L574.7,611.8z"/>
	</g>
	<g>
		<path fill="#F5BA64" d="M604.5,616.7c-0.1-1-0.1-2-0.2-3c6.3,6.2,12.4,12.7,19.7,17.9c1.3,1,2.6,2,3.9,3
			c8.2,6.6,17.5,11.7,26.7,16.7c9.9,5.4,20.4,9.7,31.2,13.2c-1.1-1.2-2.2-2.5-3.1-3.8c32.3,13,66.8,19.4,101.1,24.7
			c8.9,2,18.1,2,27.1,3.3c3.8,0.5,7.6,0.7,11.4,0.3c-9.8-3.3-20.5-2.2-30.4-5.5c4.4,0.4,8.9,0.9,13.3,0.6
			c-4.9-1.8-10.2-1.9-15.3-2.9c-8.2-1.4-16.4-3.3-24.7-3.6c-13.8-3.1-27.6-5.7-41.2-9.5c-5.6-1.5-11-3.5-16.7-4.6
			c-27.4-9.6-54.7-21-77.3-39.6l-0.7-0.5c0.8-1.1,1.7-2.2,2.6-3.4c19.6,16.5,43.1,27.3,67,36.2c33.8,12.1,69.2,19.1,104.8,23.2
			c13.5,2.1,27.2,3.1,40.8,4.2c7.9,0.8,15.9,0.1,23.8,1c9.4,1,18.9-0.1,28.3,0.9c10.6,1.2,21.2-0.1,31.8,1.1
			c8.2,1,16.6-0.2,24.8,0.9c-2.2,2.2-5.5,1.9-8.4,2c-14.3,0-28.6-0.4-42.8,0.9c0.9,0.6,1.9,1.2,2.8,1.8c-14.7,0.5-29.3-0.4-44,1.1
			c-14.7-0.4-29.4-1.3-44.1-2.8c-13.6-1.4-27.2-2.3-40.7-4.7c-2.8-0.3-6.1-1.3-8.5,0.8c24.1,5.6,48.8,7.7,73.2,11.3
			c5.4,1.1,11.1,0,16.3,2c-10.3,1.3-20.7-2.2-31-0.3c-3,0.8-6.1,2-9.3,1.6c-7.6-0.7-15.2-1.6-22.8-2.4c-5.4-0.6-10.8,1-16.2,0.3
			c-35.7-5.2-71.4-12.4-104.8-26.2c-15-5.9-29.6-13-43-22c-2.9-2-4.4-5.3-6.6-8l-0.4-0.6c0.6-2.3,1.6-4.6,1.4-7.1
			c-1.2-2.3-3.4-3.9-5.3-5.6C614,625.7,610,620.4,604.5,616.7L604.5,616.7z"/>
	</g>
	<g>
		<path fill="#B68774" d="M606.6,621.4c-1.2-1.3-1.9-3-2-4.7c5.5,3.7,9.5,9,14.6,13.1c1.9,1.7,4.1,3.2,5.3,5.6
			c0.2,2.4-0.8,4.8-1.4,7.1c-7.2-5.5-14.3-11.3-20.6-18c0.6-1.1,1.2-2.1,1.9-3.1c4.8,3.5,8.5,8.4,13.4,11.9
			C614.4,628.9,610.2,625.4,606.6,621.4L606.6,621.4z"/>
	</g>
	<g>
		<path fill="#D4B293" d="M625.9,621c1.2,0.7,2.3,1.3,3.4,2.1l0.7,0.5c-0.6,3.6-1.3,7.3-2.1,10.9c-1.3-1-2.6-2-3.9-3
			C624.8,628,625.3,624.5,625.9,621L625.9,621z"/>
	</g>
	<g>
		<path fill="#F5D5A6" d="M630,623.6c22.6,18.6,50,30,77.3,39.6c-2.5,0-5,0.1-7.4,0.2c11.9,5.7,24.8,9,37.8,11.3
			c17,4.4,34.3,7,51.6,10c-1.8,0.2-3.7,0.4-5.5,0.5c-34.3-5.3-68.8-11.7-101.1-24.7c-6.4-3.1-13.1-5.7-19.5-8.8
			c-2.6-1.5-5.7-1.7-8.5-0.6c-9.2-5-18.5-10-26.7-16.7C628.7,630.9,629.3,627.3,630,623.6L630,623.6z"/>
	</g>
	<g>
		<path fill="#9AB3D6" d="M491.3,660.3c7-7.4,13.4-15.3,20.7-22.4c-1.1,3.8-2.3,7.5-3.9,11c-2.2,3-4,6.2-5.3,9.7
			c-2.8,7.8-9.2,13.3-13.8,19.9c1.7,0.2,3.5,0.5,5.2,0.7c-1.6,6-5.3,11.9-3.8,18.3c0.9,3.5,4.9,4.5,7.7,6c-0.9,3.5-3.8,5.8-6.3,8.2
			c-11.7,10.2-24.4,19.4-38.2,26.7c-7.1,3.8-14.4,7-21.7,10.4c-9.1,4.3-17.5,10.3-23.8,18.2c-5.8,7.1-11.8,14.5-20,19
			c-8.2,4.8-17.5,6.9-26.5,9.5c-14,4-25.4,13.6-38.7,19.2c24.3-1,48.5-4.5,72.6-8.3c34.1-5.9,67.8-14.8,99.7-28.3
			c18.1-7.4,35.5-16.4,51.6-27.4c23.2-15.4,43.4-35.8,57.4-60l0.8,0.2c0.8,0.6,1.6,1.2,2.4,1.8c-7.2,12.5-16.4,23.8-26.4,34.2
			c-24.2,24-54,41.9-85.5,54.5C459,796.9,420.2,806.3,381,812c-31.6,4.8-63.4,6.9-95.3,8.2c-4.4-0.3-8.8,0-13.2-1.1
			c12.2-4.3,23.3-11.2,35.8-14.8c7.5-2.2,15.3-2.9,22.9-5.1c9.5-2.5,18.4-6.8,25.9-13.1c6.8-5.6,12.9-11.9,20.4-16.7
			c9.1-6.1,19.7-9,29.6-13.4c16-7,31.9-14.2,47.1-22.9c4-2.4,8.5-4.8,11-8.9c-2.3-2.5-5.7-4.7-5.7-8.4c-0.2-3.9,1.7-7.5,4.1-10.3
			c7.4-9,16.3-16.6,23.5-25.8c-5.1,0.4-10,1.5-15.1,2.1C478,674.3,484.9,667.5,491.3,660.3L491.3,660.3z"/>
	</g>
	<g>
		<path fill="#F5D2A0" d="M628.2,637.9c4.5,1.9,8.1,5.3,12.2,7.8c26.1,16.8,55.7,27.2,85.8,34.2c27.4,6.8,55.4,10.4,82.9,16.9
			c-16.2-0.3-32.1-3.9-48.1-5.6c5.5,2.4,11.6,3.2,17.1,5.6c-9.6-0.4-19-2.6-28.5-4.3c-38.8-7.5-77.1-19.6-111.2-39.9
			c-3.9-2.5-8.1-4.6-11.4-7.8C626.4,642.4,627.6,640.1,628.2,637.9L628.2,637.9z"/>
	</g>
	<g>
		<path fill="#F5BA64" d="M634.1,645.1c5.3,2.4,10,5.9,15.2,8.7c4.4,2.3,8.9,4.5,13.3,6.7c5,2.6,10.6,4.2,15.3,7.4
			c-13.9-4.3-26.8-11.2-39-18.9C637.1,648,635.5,646.6,634.1,645.1L634.1,645.1z"/>
	</g>
	<g>
		<path fill="#5A7FB9" d="M502.8,658.7c1.3-3.5,3.1-6.7,5.3-9.7c-2.5,10.4-8.8,19.4-12.2,29.5c3.8,0.5,7.9,0.5,11.5,2.1
			c2.7,1.6,4.5,4.2,6.7,6.4c2.9-1.9,6-3.6,9.1-5c-0.3,2.2-0.6,4.5-1.7,6.4c-4.8,9.1-12.1,16.5-20,23c-13.1,11.2-28.9,18.2-42.8,28.2
			c-4.8,3.5-8.9,7.9-12.1,12.8c-4.2,6.2-7.2,13.2-12.3,18.7c-6.6,6.8-15.4,10.9-24.3,13.8c-7.5,2.4-14.5,6.3-20.7,11.2
			c-5.2,4.1-10.9,7.8-16.1,11.8c4,0,8-0.3,11.9-1.1c11.4-2.3,23-3.8,34.3-6.7c20.1-4.2,39.9-9.9,59.2-16.9
			c32.7-11.9,64.1-28.4,90-51.9c7-5.7,12.6-12.7,18.6-19.4c5.5-6.9,11.1-13.9,15.1-21.8c0.5,0.2,1.6,0.5,2.2,0.7
			c-14,24.2-34.2,44.6-57.4,60c-16.2,10.9-33.5,20-51.6,27.4c-31.9,13.6-65.6,22.5-99.7,28.3c-24,3.9-48.2,7.3-72.6,8.3
			c13.3-5.5,24.7-15.2,38.7-19.2c9-2.6,18.4-4.7,26.5-9.5c8.2-4.6,14.2-11.9,20-19c6.3-7.9,14.7-13.9,23.8-18.2
			c7.3-3.4,14.6-6.6,21.7-10.4c13.8-7.3,26.4-16.5,38.2-26.7c2.5-2.3,5.4-4.7,6.3-8.2c-2.8-1.5-6.8-2.5-7.7-6
			c-1.5-6.4,2.1-12.3,3.8-18.3c-1.7-0.2-3.5-0.5-5.2-0.7C493.6,672,500,666.4,502.8,658.7L502.8,658.7z"/>
	</g>
	<g>
		<path fill="#F5CA8C" d="M654.6,651.2c2.8-1.1,5.8-0.9,8.5,0.6c6.4,3.1,13.1,5.6,19.5,8.8c0.9,1.4,2,2.6,3.1,3.8
			C675.1,660.9,664.5,656.6,654.6,651.2L654.6,651.2z"/>
	</g>
	<g>
		<path fill="#D2A989" d="M589.2,650.7c2.3,2,4.7,4,7.1,6c-1.1,2.2-2.3,4.4-3.6,6.6c-2.4-1.8-4.7-3.7-6.9-5.7
			C586.9,655.3,588,653,589.2,650.7L589.2,650.7z"/>
	</g>
	<g>
		<path fill="#F5BA62" d="M625.1,654.1c8.3,4.6,16,10.1,24.5,14.3c12.6,6.2,25.5,11.8,39,16c36.6,12.6,75,19,113.3,23.7
			c30.6,4.1,61.5,5.8,92.2,8.5c2.8,0.2,5.5,0.9,8,2c-17,1.6-34.2-0.9-51.2,1.3c-8.3,0.5-16.7,0.1-25-0.6c-9-0.8-18,0.6-26.9-0.6
			c-12.1-0.6-24.1-2.4-36.1-3.5c-8.7-0.9-17.2-2.9-25.8-4.4c-11-2-21.9-5.2-33.1-6c-8.7-0.6-17.4-2.2-26.2-1.5
			c6.1,3.5,13.1,4.8,19.7,6.9c18.1,5.3,36.4,9.7,54.9,12.9c-0.4-0.9-0.8-1.7-1.2-2.6c15.3,1.7,30.3,5.5,45.7,6.2
			c-6-2.3-12.6-2.6-18.3-5.8c6.6-0.1,13,1.7,19.6,2.4c17.9,1.8,35.7,4.5,53.6,5.5c6.4,0.6,13,0.5,19.2,2.2c-3.8,2-8.1,2.3-12.2,1.9
			c-8-0.7-16-1.1-23.9-1.9c-4.6-0.5-9.2,0.2-13.6,1.2c-7.3,1.8-14.7-0.1-22-0.8c-7.1-0.6-14.2-3-21.4-1.7
			c-7.8,1.5-15.6-0.7-23.3-1.7c-43-7.5-85.5-19.9-124.7-39.3c-5.2-2.9-11.2-4.9-14.9-9.9c5.9,3,11.5,6.4,17.4,9.3
			c4.9,2.4,10.4,3.2,15.7,4.2c7.3,1.3,14.3,4.1,21.7,5.2c-5.8-3-12-5.2-17.9-7.9c-11.6-5.4-23-11.2-33.9-17.9
			c-0.3-0.2-0.9-0.5-1.2-0.7c2.2-3,5.6-7.6,1.7-10.8c0.2-0.3,0.6-1,0.8-1.4c0.6,0.1,1.8,0.2,2.4,0.3
			C622.9,657.6,624,655.9,625.1,654.1L625.1,654.1z"/>
	</g>
	<g>
		<path fill="#B08678" d="M592.7,663.2c1.3-2.1,2.5-4.3,3.6-6.6c5.8,4.6,11.8,9,18,13.1c-0.9,2.2-1.8,4.4-2.7,6.7
			C605,672.5,598.9,667.8,592.7,663.2L592.7,663.2z"/>
	</g>
	<g>
		<path fill="#F5D3A1" d="M621.7,661.1c4.6,1.9,8.6,4.9,13,7.2c8.2,4.4,16.5,8.3,25,12.1c9.4,4.4,19.4,7.6,29.2,10.8
			c3.3,1.2,6.8,1.3,10.2,1.1c1.1,0,2.1,0.2,3.1,0.5c37.1,10.8,75.5,16.3,113.7,21.5c4.4,0.6,8.9,0.9,13.1,2.4
			c-14.1-0.9-28.1-2.8-42.2-3.6c4.5,2.1,9.8,1.7,14.3,3.8c-7.1,0.2-14.1-1.1-21.1-1.8c-35.7-4.6-71.3-12-104.8-25.4
			c-17.6-6.9-34.6-15.3-50.7-25.3C623.1,663.8,622.2,662.5,621.7,661.1L621.7,661.1z"/>
	</g>
	<g>
		<path fill="#F5CD92" d="M699.9,663.4c2.5,0,4.9-0.1,7.4-0.2c5.7,1.1,11.2,3.1,16.7,4.6c13.5,3.9,27.4,6.5,41.2,9.5
			c-9.4,1.3-18.2-4.1-27.6-2.7C724.7,672.4,711.8,669.1,699.9,663.4L699.9,663.4z"/>
	</g>
	<g>
		<path fill="#577BB7" d="M569.1,666.1c1,0.9,2,1.7,3,2.6c-5.6,8.5-11,17.1-18,24.5c-4.6,4.8-9.1,9.8-15.1,12.9
			c3.5-4.7,8.2-8.4,12-12.9C558.3,685,564.4,675.9,569.1,666.1L569.1,666.1z"/>
	</g>
	<g>
		<path fill="#D9B08D" d="M614.3,669.8c0.8,0.5,1.7,1,2.6,1.5c0.3,0.2,0.9,0.5,1.2,0.7c-1.2,2.3-2.3,4.5-3.6,6.7
			c-0.8-0.6-1.5-1.2-2.3-1.8l-0.7-0.5C612.5,674.2,613.4,672,614.3,669.8L614.3,669.8z"/>
	</g>
	<g>
		<path fill="#5A7EB9" d="M576.4,672c1,0.7,1.9,1.5,2.9,2.2c-1.4,3.4-3.3,6.5-5.2,9.7c2.1-2.9,4.2-5.9,6.7-8.5
			c0.4,0.3,1.1,0.8,1.5,1.1c-3.9,9-10.6,16.4-16.3,24.3c7.5-6.4,12.2-15.2,18.1-22.9c1.4,1,2.8,2.1,4.2,3.1
			c-8.2,13.5-18.4,25.6-30.2,36.1c-14.6,12.3-30.8,22.7-48.1,30.9c-5.9,2.7-11.8,5.6-18.1,6.9c1.7-1.3,3.5-2.6,5.4-3.7
			c10-5.5,20.2-10.9,29.7-17.3c2.2-1.3,1.8-4.4,3.8-6c7.4-6.4,15.2-12.1,22.5-18.6c4.8-4.3,6.6-10.7,10.1-15.9
			C567.6,686.2,573.1,679.8,576.4,672L576.4,672z"/>
	</g>
	<g>
		<path fill="#F5D3A2" d="M618.2,672c10.9,6.7,22.3,12.5,33.9,17.9c5.9,2.8,12.1,5,17.9,7.9c-7.4-1.1-14.4-3.8-21.7-5.2
			c-5.3-1-10.8-1.8-15.7-4.2c-5.9-2.9-11.6-6.3-17.4-9.3l-0.5-0.4C615.8,676.5,617,674.3,618.2,672L618.2,672z"/>
	</g>
	<g>
		<path fill="#FFFFFF" d="M579.3,674.3c0.5,0.4,1,0.8,1.5,1.1c-2.5,2.6-4.6,5.6-6.7,8.5C576,680.8,578,677.7,579.3,674.3
			L579.3,674.3z"/>
	</g>
	<g>
		<path fill="#F5C275" d="M737.7,674.7c9.3-1.4,18.2,4,27.6,2.7c8.3,0.3,16.5,2.2,24.7,3.6c5.1,1,10.4,1,15.3,2.9
			c-4.5,0.3-8.9-0.2-13.3-0.6c9.8,3.4,20.6,2.2,30.4,5.5c-3.8,0.3-7.6,0.2-11.4-0.3c-9-1.3-18.2-1.2-27.1-3.3
			c1.8-0.1,3.7-0.3,5.5-0.5C772,681.7,754.6,679.1,737.7,674.7L737.7,674.7z"/>
	</g>
	<g>
		<path fill="#9BB5D7" d="M582.3,676.6c0.5,0.3,1.4,1,1.8,1.4c-5.9,7.8-10.6,16.5-18.1,22.9C571.6,692.9,578.4,685.6,582.3,676.6
			L582.3,676.6z"/>
	</g>
	<g>
		<path fill="#FFFFFE" d="M911.9,677.6c10.7-0.8,21.4-0.1,32.1,0.6c5.8,0.1,11.6-0.2,17.4,0.9c-2.7,0.3-5.4,0.7-8,1.1
			c-8.8-2.2-17.9-0.9-26.8-1.9C921.6,677.7,916.7,677.8,911.9,677.6L911.9,677.6z"/>
	</g>
	<g>
		<path fill="#F5C37A" d="M659.3,677.9c11.1,2.9,21.5,8.3,32.6,11.2c2.5,0.7,5.2,1.4,7.2,3.3c-3.4,0.2-6.9,0.1-10.2-1.1
			c-9.9-3.3-19.8-6.4-29.2-10.8C659.6,679.8,659.4,678.5,659.3,677.9L659.3,677.9z"/>
	</g>
	<g>
		<path fill="#F5B962" d="M605.6,689.1c3.2,0.2,6.7-1.3,9.7,0.7c3.9,2.2,7.7,4.5,11.8,6.2c32.3,15.4,67,25.3,101.8,33.2
			c15.5,2.7,30.9,5.9,46.5,7.5c32.1,4.9,64.6,5.1,96.7,9.1c-13,2.8-26.3,0.5-39.4-0.2c-33.9-2-67.7-5.7-101.1-12.2
			C692.4,726,654,713.5,618,696c-3.8-2-7.5-4.7-11.9-4.8c-0.3-0.6-0.9-1.7-1.2-2.3L605.6,689.1L605.6,689.1z"/>
	</g>
	<g>
		<path fill="#F5D4A4" d="M605.1,691.1l1,0.1c4.4,0.1,8.1,2.8,11.9,4.8c36,17.5,74.4,30,113.7,37.3c33.3,6.5,67.2,10.2,101.1,12.2
			c13.1,0.8,26.3,3,39.4,0.2c0.4,0,1.3,0,1.7,0c10.4,0.5,20.8,1.6,31.3,1.4c-7.7,1-15.4,1.8-23.1,1.5c-8.4,0.2-16.6-1.4-25-1
			c-7.7,0.3-15.3-0.8-23-1c-42.7-1.9-85.4-6.6-127-16.7c-34.5-8.3-68.4-19.9-99.5-37.2C606.7,692.3,605.9,691.7,605.1,691.1
			L605.1,691.1z"/>
	</g>
	<g>
		<path fill="#CEDAEC" d="M267.3,821c1.8-0.6,3.5-1.2,5.3-1.9c4.3,1.1,8.8,0.8,13.2,1.1l1,0.8H267.3L267.3,821z"/>
	</g>
</g>
<g>
</g>
<g>
</g>
<g>
</g>
</svg>
